<svg width="76" height="74" viewBox="0 0 76 74" fill="none" xmlns="http://www.w3.org/2000/svg">
<g filter="url(#filter0_d)">
<path d="M32.649 25.9948L33.5818 0.808304H41.0445C40.299 13.5291 39.9744 20.4938 43.6097 25.2952C48.9556 31.4053 52.0242 34.8234 51.0724 41.6198C49.4021 59.6486 48.4062 71.0455 47.5743 70.7708C47.9754 71.8988 43.1268 71.8903 34.981 71.9369C32.7319 70.7817 32.4712 69.7041 32.649 67.5059L31.4829 52.3474C42.3374 46.1353 46.2666 41.4769 40.1116 25.9948H32.649Z" fill="#B83D4F"/>
<path d="M33.9401 1.18018H40.6502C40.29 7.34399 40.0371 12.1695 40.3134 16.048C40.5961 20.0163 41.4349 23.0389 43.3133 25.5197L43.3212 25.5301L43.3299 25.54L43.4855 25.7179C46.0933 28.6982 48.1079 31.0005 49.3746 33.3751C50.653 35.7717 51.1694 38.2457 50.7041 41.5682L50.7029 41.5768L50.7021 41.5855C50.597 42.7201 50.4946 43.8284 50.3947 44.909C49.7008 52.4163 49.13 58.5912 48.6394 63.0181C48.3586 65.5517 48.105 67.5031 47.871 68.8012C47.7534 69.4535 47.6437 69.9234 47.5433 70.2157C47.5243 70.271 47.5069 70.3159 47.4916 70.3519L46.9693 70.1795L47.2186 70.8806C47.1716 70.9244 47.0539 70.9939 46.8139 71.0663C46.3325 71.2116 45.5467 71.3161 44.4581 71.3883C42.4229 71.5234 39.4448 71.54 35.7079 71.5609C35.4979 71.5621 35.2855 71.5632 35.0708 71.5645C34.0309 71.0193 33.5079 70.5205 33.2414 69.9542C32.9625 69.3617 32.9311 68.6303 33.0196 67.5359L33.022 67.5066L33.0197 67.4774L31.8717 52.553C37.1857 49.4968 40.9179 46.7445 42.5205 42.7869C44.1471 38.7702 43.542 33.6169 40.4572 25.8574L40.364 25.6229H40.1116H33.0349L33.9401 1.18018Z" stroke="#B83D4F" stroke-width="0.743745"/>
</g>
<g filter="url(#filter1_d)">
<path d="M32.1832 27.8601H38.9463C42.9104 40.1391 39.6423 44.3349 31.7168 49.7817L32.1832 27.8601Z" fill="#B83D4F"/>
<path d="M32.1041 49.0603L32.5473 28.232H38.6748C40.5684 34.1967 40.6911 38.1442 39.4451 41.2443C38.2427 44.2357 35.7394 46.5108 32.1041 49.0603Z" stroke="#B83D4F" stroke-width="0.743745"/>
</g>
<g filter="url(#filter2_d)">
<path d="M27.9848 1.27478C31.6196 6.20463 32.6063 9.42554 29.8505 17.1329H28.4513C22.118 11.5381 22.0039 8.09872 27.9848 1.27478Z" fill="#B83D4F"/>
<path d="M23.9719 9.65359C23.9064 7.47654 25.1822 5.10095 27.9596 1.87106C29.6051 4.15124 30.6212 6.04236 30.9463 8.21726C31.2822 10.4637 30.8878 13.0621 29.5878 16.7611H28.5923C25.5047 14.0148 24.0387 11.8721 23.9719 9.65359Z" stroke="#B83D4F" stroke-width="0.743745"/>
</g>
<g filter="url(#filter3_d)">
<path d="M15.8582 27.8601L29.3841 28.3265L28.9179 70.7705C24.7285 70.7705 22.3797 70.7705 18.1903 70.7705C17.5723 70.4908 17.5764 70.1915 17.7239 69.6044C18.6314 67.8893 20.2768 67.3586 26.1194 67.5055L25.653 59.3432L25.1865 54.4459V51.181C13.8845 44.333 10.7935 39.5362 15.8582 27.8601Z" fill="#B83D4F"/>
<path d="M26.0231 59.308L25.5584 54.4282V51.181V50.9715L25.3792 50.8629C19.7272 47.4383 16.2257 44.5784 14.725 41.1808C13.2562 37.8554 13.6689 33.9221 16.0992 28.2405L29.0082 28.6857L28.5501 70.3986H28.5304H28.5065H28.4827H28.4589H28.4351H28.4114H28.3877H28.3641H28.3405H28.3169H28.2934H28.2699H28.2465H28.223H28.1997H28.1763H28.153H28.1298H28.1065H28.0833H28.0602H28.0371H28.014H27.9909H27.9679H27.945H27.922H27.8991H27.8762H27.8534H27.8306H27.8078H27.7851H27.7624H27.7397H27.7171H27.6945H27.672H27.6494H27.6269H27.6045H27.582H27.5596H27.5373H27.5149H27.4926H27.4704H27.4481H27.4259H27.4038H27.3816H27.3595H27.3374H27.3154H27.2934H27.2714H27.2494H27.2275H27.2056H27.1837H27.1619H27.1401H27.1183H27.0966H27.0749H27.0532H27.0315H27.0099H26.9883H26.9667H26.9452H26.9236H26.9021H26.8807H26.8592H26.8378H26.8165H26.7951H26.7738H26.7525H26.7312H26.7099H26.6887H26.6675H26.6464H26.6252H26.6041H26.583H26.5619H26.5409H26.5199H26.4989H26.4779H26.457H26.436H26.4151H26.3943H26.3734H26.3526H26.3318H26.311H26.2903H26.2695H26.2488H26.2281H26.2075H26.1868H26.1662H26.1456H26.125H26.1045H26.0839H26.0634H26.0429H26.0225H26.002H25.9816H25.9612H25.9408H25.9204H25.9001H25.8797H25.8594H25.8391H25.8189H25.7986H25.7784H25.7582H25.738H25.7178H25.6976H25.6775H25.6574H25.6372H25.6172H25.5971H25.577H25.557H25.537H25.517H25.497H25.477H25.4571H25.4371H25.4172H25.3973H25.3774H25.3575H25.3377H25.3178H25.298H25.2782H25.2584H25.2386H25.2188H25.1991H25.1793H25.1596H25.1399H25.1202H25.1005H25.0808H25.0612H25.0415H25.0219H25.0023H24.9827H24.9631H24.9435H24.9239H24.9043H24.8848H24.8652H24.8457H24.8262H24.8067H24.7872H24.7677H24.7482H24.7288H24.7093H24.6898H24.6704H24.651H24.6316H24.6122H24.5928H24.5734H24.554H24.5346H24.5152H24.4959H24.4765H24.4572H24.4379H24.4185H24.3992H24.3799H24.3606H24.3413H24.322H24.3027H24.2835H24.2642H24.2449H24.2257H24.2064H24.1872H24.1679H24.1487H24.1295H24.1102H24.091H24.0718H24.0526H24.0334H24.0142H23.995H23.9758H23.9566H23.9374H23.9182H23.899H23.8798H23.8607H23.8415H23.8223H23.8032H23.784H23.7648H23.7457H23.7265H23.7073H23.6882H23.669H23.6499H23.6307H23.6115H23.5924H23.5732H23.5541H23.5349H23.5158H23.4966H23.4775H23.4583H23.4391H23.42H23.4008H23.3817H23.3625H23.3433H23.3242H23.305H23.2858H23.2667H23.2475H23.2283H23.2091H23.1899H23.1708H23.1516H23.1324H23.1132H23.094H23.0748H23.0556H23.0364H23.0171H22.9979H22.9787H22.9595H22.9402H22.921H22.9017H22.8825H22.8632H22.844H22.8247H22.8054H22.7861H22.7668H22.7475H22.7282H22.7089H22.6896H22.6703H22.6509H22.6316H22.6123H22.5929H22.5735H22.5542H22.5348H22.5154H22.496H22.4766H22.4572H22.4377H22.4183H22.3989H22.3794H22.3599H22.3405H22.321H22.3015H22.282H22.2625H22.2429H22.2234H22.2038H22.1843H22.1647H22.1451H22.1255H22.1059H22.0863H22.0666H22.047H22.0273H22.0076H21.988H21.9683H21.9485H21.9288H21.9091H21.8893H21.8695H21.8498H21.83H21.8101H21.7903H21.7705H21.7506H21.7307H21.7108H21.6909H21.671H21.6511H21.6311H21.6112H21.5912H21.5712H21.5512H21.5311H21.5111H21.491H21.4709H21.4508H21.4307H21.4105H21.3904H21.3702H21.35H21.3298H21.3096H21.2893H21.269H21.2487H21.2284H21.2081H21.1877H21.1674H21.147H21.1266H21.1061H21.0857H21.0652H21.0447H21.0242H21.0037H20.9831H20.9626H20.942H20.9213H20.9007H20.88H20.8593H20.8386H20.8179H20.7971H20.7764H20.7556H20.7347H20.7139H20.693H20.6721H20.6512H20.6302H20.6093H20.5883H20.5673H20.5462H20.5251H20.5041H20.4829H20.4618H20.4406H20.4194H20.3982H20.377H20.3557H20.3344H20.3131H20.2917H20.2703H20.2489H20.2275H20.206H20.1845H20.163H20.1415H20.1199H20.0983H20.0766H20.055H20.0333H20.0116H19.9898H19.9681H19.9462H19.9244H19.9025H19.8806H19.8587H19.8368H19.8148H19.7928H19.7707H19.7486H19.7265H19.7044H19.6822H19.66H19.6378H19.6155H19.5932H19.5709H19.5485H19.5261H19.5037H19.4812H19.4587H19.4362H19.4136H19.391H19.3684H19.3457H19.3231H19.3003H19.2776H19.2548H19.2319H19.209H19.1861H19.1632H19.1402H19.1172H19.0942H19.0711H19.048H19.0248H19.0016H18.9784H18.9551H18.9318H18.9085H18.8851H18.8617H18.8382H18.8148H18.7912H18.7677H18.7441H18.7204H18.6967H18.673H18.6493H18.6255H18.6016H18.5778H18.5538H18.5299H18.5059H18.4819H18.4578H18.4337H18.4095H18.3853H18.3611H18.3368H18.3125H18.2881H18.2742C18.0651 70.2935 18.0343 70.2213 18.0247 70.1908C18.004 70.1255 18.0073 70.0127 18.0737 69.7389C18.2768 69.3648 18.5128 69.0675 18.8245 68.8264C19.1486 68.5756 19.573 68.3715 20.1652 68.2164C21.3639 67.9025 23.1879 67.8038 26.11 67.8773L26.5137 67.8874L26.4906 67.4843L26.0242 59.322L26.0245 59.322L26.0231 59.308Z" stroke="#B83D4F" stroke-width="0.743745"/>
</g>
<g filter="url(#filter4_d)">
<path d="M4.38011 27.8601H12.3092C9.07844 39.2863 9.49751 45.1888 22.104 53.0466L22.5705 64.2406C11.1375 62.4261 5.54421 58.4347 0.41563 47.2164C-0.82453 37.5185 0.772514 33.7494 4.38011 27.8601Z" fill="#B83D4F"/>
<path d="M0.941525 36.197C1.60863 33.4231 2.84608 31.0887 4.58864 28.232H11.8188C10.296 33.7201 9.63581 38.016 10.9143 41.9076C12.2207 45.8839 15.5215 49.3568 21.7406 53.258L22.1799 63.8005C16.7211 62.8939 12.6635 61.4654 9.35343 58.9585C5.96346 56.391 3.32106 52.6647 0.777353 47.1132C0.168283 42.319 0.263442 39.0165 0.941525 36.197Z" stroke="#B83D4F" stroke-width="0.743745"/>
</g>
<g filter="url(#filter5_d)">
<path d="M44.3093 0.341357C61.878 -1.06462 67.6512 1.54615 73.0574 14.3341C73.6391 29.3238 71.5599 39.0644 54.5706 43.9516C55.3515 38.6708 55.2267 35.0069 51.6554 29.7256C41.287 18.3548 44.1046 11.8596 44.3093 0.341357Z" fill="#B83D4F"/>
<path d="M70.0735 32.759C67.6203 37.4538 63.1061 41.0084 55.0206 43.4319C55.3526 41.0209 55.4732 38.9039 55.1117 36.7765C54.7209 34.4766 53.7716 32.1912 51.9634 29.5173L51.9483 29.495L51.9302 29.475C46.7866 23.8342 44.941 19.4362 44.3864 15.0422C44.1077 12.834 44.1534 10.6141 44.284 8.2131C44.3212 7.52999 44.3653 6.8313 44.4106 6.1144C44.5177 4.41837 44.6313 2.62042 44.6744 0.685585C53.2682 0.0174765 58.9202 0.347919 63.0831 2.35013C67.2619 4.36 70.0059 8.08925 72.6884 14.4164C72.9742 21.876 72.5874 27.9481 70.0735 32.759Z" stroke="#B83D4F" stroke-width="0.743745"/>
</g>
<g filter="url(#filter6_d)">
<path d="M8.86182 18.7649C20.0267 13.3039 25.0617 14.2067 29.8506 24.5956C21.8073 26.7637 17.1954 25.0514 8.86182 18.7649Z" fill="#B83D4F"/>
<path d="M8.86182 18.7649C20.0267 13.3039 25.0617 14.2067 29.8506 24.5956C21.8073 26.7637 17.1954 25.0514 8.86182 18.7649Z" stroke="#B83D4F" stroke-width="0.743745"/>
</g>
<g filter="url(#filter7_d)">
<circle cx="18.1893" cy="9.66976" r="3.73133" fill="#B83D4F"/>
<circle cx="18.1893" cy="9.66976" r="3.35946" stroke="#B83D4F" stroke-width="0.743745"/>
</g>
<defs>
<filter id="filter0_d" x="31.4829" y="0.808304" width="21.7448" height="73.1119" filterUnits="userSpaceOnUse" color-interpolation-filters="sRGB">
<feFlood flood-opacity="0" result="BackgroundImageFix"/>
<feColorMatrix in="SourceAlpha" type="matrix" values="0 0 0 0 0 0 0 0 0 0 0 0 0 0 0 0 0 0 127 0"/>
<feOffset dx="0.991661" dy="0.991661"/>
<feGaussianBlur stdDeviation="0.49583"/>
<feColorMatrix type="matrix" values="0 0 0 0 0 0 0 0 0 0 0 0 0 0 0 0 0 0 0.4 0"/>
<feBlend mode="normal" in2="BackgroundImageFix" result="effect1_dropShadow"/>
<feBlend mode="normal" in="SourceGraphic" in2="effect1_dropShadow" result="shape"/>
</filter>
<filter id="filter1_d" x="31.7168" y="27.8601" width="10.8997" height="23.9049" filterUnits="userSpaceOnUse" color-interpolation-filters="sRGB">
<feFlood flood-opacity="0" result="BackgroundImageFix"/>
<feColorMatrix in="SourceAlpha" type="matrix" values="0 0 0 0 0 0 0 0 0 0 0 0 0 0 0 0 0 0 127 0"/>
<feOffset dx="0.991661" dy="0.991661"/>
<feGaussianBlur stdDeviation="0.49583"/>
<feColorMatrix type="matrix" values="0 0 0 0 0 0 0 0 0 0 0 0 0 0 0 0 0 0 0.4 0"/>
<feBlend mode="normal" in2="BackgroundImageFix" result="effect1_dropShadow"/>
<feBlend mode="normal" in="SourceGraphic" in2="effect1_dropShadow" result="shape"/>
</filter>
<filter id="filter2_d" x="23.5977" y="1.27478" width="9.81765" height="17.8415" filterUnits="userSpaceOnUse" color-interpolation-filters="sRGB">
<feFlood flood-opacity="0" result="BackgroundImageFix"/>
<feColorMatrix in="SourceAlpha" type="matrix" values="0 0 0 0 0 0 0 0 0 0 0 0 0 0 0 0 0 0 127 0"/>
<feOffset dx="0.991661" dy="0.991661"/>
<feGaussianBlur stdDeviation="0.49583"/>
<feColorMatrix type="matrix" values="0 0 0 0 0 0 0 0 0 0 0 0 0 0 0 0 0 0 0.4 0"/>
<feBlend mode="normal" in2="BackgroundImageFix" result="effect1_dropShadow"/>
<feBlend mode="normal" in="SourceGraphic" in2="effect1_dropShadow" result="shape"/>
</filter>
<filter id="filter3_d" x="13.501" y="27.8601" width="17.8664" height="44.8937" filterUnits="userSpaceOnUse" color-interpolation-filters="sRGB">
<feFlood flood-opacity="0" result="BackgroundImageFix"/>
<feColorMatrix in="SourceAlpha" type="matrix" values="0 0 0 0 0 0 0 0 0 0 0 0 0 0 0 0 0 0 127 0"/>
<feOffset dx="0.991661" dy="0.991661"/>
<feGaussianBlur stdDeviation="0.49583"/>
<feColorMatrix type="matrix" values="0 0 0 0 0 0 0 0 0 0 0 0 0 0 0 0 0 0 0.4 0"/>
<feBlend mode="normal" in2="BackgroundImageFix" result="effect1_dropShadow"/>
<feBlend mode="normal" in="SourceGraphic" in2="effect1_dropShadow" result="shape"/>
</filter>
<filter id="filter4_d" x="0" y="27.8601" width="24.5538" height="38.3638" filterUnits="userSpaceOnUse" color-interpolation-filters="sRGB">
<feFlood flood-opacity="0" result="BackgroundImageFix"/>
<feColorMatrix in="SourceAlpha" type="matrix" values="0 0 0 0 0 0 0 0 0 0 0 0 0 0 0 0 0 0 127 0"/>
<feOffset dx="0.991661" dy="0.991661"/>
<feGaussianBlur stdDeviation="0.49583"/>
<feColorMatrix type="matrix" values="0 0 0 0 0 0 0 0 0 0 0 0 0 0 0 0 0 0 0.4 0"/>
<feBlend mode="normal" in2="BackgroundImageFix" result="effect1_dropShadow"/>
<feBlend mode="normal" in="SourceGraphic" in2="effect1_dropShadow" result="shape"/>
</filter>
<filter id="filter5_d" x="43.8091" y="0" width="31.3151" height="45.9349" filterUnits="userSpaceOnUse" color-interpolation-filters="sRGB">
<feFlood flood-opacity="0" result="BackgroundImageFix"/>
<feColorMatrix in="SourceAlpha" type="matrix" values="0 0 0 0 0 0 0 0 0 0 0 0 0 0 0 0 0 0 127 0"/>
<feOffset dx="0.991661" dy="0.991661"/>
<feGaussianBlur stdDeviation="0.49583"/>
<feColorMatrix type="matrix" values="0 0 0 0 0 0 0 0 0 0 0 0 0 0 0 0 0 0 0.4 0"/>
<feBlend mode="normal" in2="BackgroundImageFix" result="effect1_dropShadow"/>
<feBlend mode="normal" in="SourceGraphic" in2="effect1_dropShadow" result="shape"/>
</filter>
<filter id="filter6_d" x="8.1543" y="15.0927" width="24.2017" height="12.752" filterUnits="userSpaceOnUse" color-interpolation-filters="sRGB">
<feFlood flood-opacity="0" result="BackgroundImageFix"/>
<feColorMatrix in="SourceAlpha" type="matrix" values="0 0 0 0 0 0 0 0 0 0 0 0 0 0 0 0 0 0 127 0"/>
<feOffset dx="0.991661" dy="0.991661"/>
<feGaussianBlur stdDeviation="0.49583"/>
<feColorMatrix type="matrix" values="0 0 0 0 0 0 0 0 0 0 0 0 0 0 0 0 0 0 0.4 0"/>
<feBlend mode="normal" in2="BackgroundImageFix" result="effect1_dropShadow"/>
<feBlend mode="normal" in="SourceGraphic" in2="effect1_dropShadow" result="shape"/>
</filter>
<filter id="filter7_d" x="14.458" y="5.93843" width="9.44599" height="9.44599" filterUnits="userSpaceOnUse" color-interpolation-filters="sRGB">
<feFlood flood-opacity="0" result="BackgroundImageFix"/>
<feColorMatrix in="SourceAlpha" type="matrix" values="0 0 0 0 0 0 0 0 0 0 0 0 0 0 0 0 0 0 127 0"/>
<feOffset dx="0.991661" dy="0.991661"/>
<feGaussianBlur stdDeviation="0.49583"/>
<feColorMatrix type="matrix" values="0 0 0 0 0 0 0 0 0 0 0 0 0 0 0 0 0 0 0.4 0"/>
<feBlend mode="normal" in2="BackgroundImageFix" result="effect1_dropShadow"/>
<feBlend mode="normal" in="SourceGraphic" in2="effect1_dropShadow" result="shape"/>
</filter>
</defs>
</svg>
