<svg width="385" height="148" viewBox="0 0 385 148" fill="none" xmlns="http://www.w3.org/2000/svg">
<g filter="url(#filter0_d)">
<path d="M59.0934 56.5865L60.7818 10.9999H74.289C72.9397 34.0241 72.3523 46.63 78.932 55.3202C88.6078 66.3794 94.1618 72.5659 92.4392 84.8672C89.416 117.499 87.6135 138.127 86.1077 137.629C86.8338 139.671 78.0579 139.656 63.3144 139.74C59.2435 137.649 58.7716 135.699 59.0934 131.72L56.9829 104.284C76.6292 93.0401 83.7408 84.6086 72.6006 56.5865H59.0934Z" fill="#F692A1"/>
<path d="M61.4304 11.673H73.5753C72.9234 22.8292 72.4656 31.5632 72.9657 38.5831C73.4775 45.7656 74.9957 51.2364 78.3954 55.7265L78.4098 55.7455L78.4255 55.7634C78.5198 55.8712 78.6137 55.9785 78.7071 56.0853C83.4272 61.4796 87.0735 65.6467 89.3662 69.9447C91.68 74.2824 92.6147 78.7603 91.7726 84.7738L91.7704 84.7894L91.769 84.8051C91.5787 86.8586 91.3933 88.8643 91.2126 90.8202C89.9566 104.408 88.9235 115.585 88.0355 123.597C87.5272 128.183 87.0683 131.715 86.6447 134.064C86.4319 135.245 86.2333 136.096 86.0515 136.625C86.0172 136.725 85.9858 136.806 85.9581 136.871L85.0127 136.559L85.464 137.828C85.3789 137.908 85.1659 138.033 84.7314 138.164C83.8602 138.427 82.4379 138.616 80.4676 138.747C76.7842 138.992 71.3946 139.022 64.6318 139.059C64.2511 139.062 63.8661 139.064 63.4768 139.066C61.5947 138.079 60.6482 137.176 60.1656 136.151C59.6609 135.079 59.6041 133.755 59.7643 131.774L59.7686 131.721L59.7645 131.668L57.6866 104.656C67.3048 99.1242 74.0599 94.1427 76.9605 86.9797C79.9046 79.7096 78.8094 70.3823 73.226 56.3379L73.0573 55.9135H72.6006H59.7919L61.4304 11.673Z" stroke="#B83D4F" stroke-opacity="0.6" stroke-width="1.34615"/>
</g>
<g filter="url(#filter1_d)">
<path d="M58.25 59.9633H70.4908C77.6657 82.1878 71.7506 89.7821 57.4058 99.6406L58.25 59.9633Z" fill="#B83D4F"/>
<path d="M58.1068 98.3348L58.9089 60.6364H69.9996C73.4268 71.4323 73.649 78.577 71.3937 84.1882C69.2174 89.6026 64.6865 93.7204 58.1068 98.3348Z" stroke="#B83D4F" stroke-opacity="0.6" stroke-width="1.34615"/>
</g>
<g filter="url(#filter2_d)">
<path d="M50.6521 11.8441C57.2309 20.767 59.0167 26.5967 54.0289 40.5468H51.4963C40.0333 30.4203 39.8268 24.1952 50.6521 11.8441Z" fill="#194567"/>
<path d="M43.3888 27.0095C43.2703 23.0691 45.5794 18.7694 50.6064 12.9234C53.5847 17.0504 55.4238 20.4733 56.0123 24.4098C56.6201 28.4758 55.9063 33.1788 53.5534 39.8738H51.7516C46.1631 34.9031 43.5096 31.025 43.3888 27.0095Z" stroke="#B83D4F" stroke-opacity="0.6" stroke-width="1.34615"/>
</g>
<g filter="url(#filter3_d)">
<path d="M28.7035 59.9633L53.1849 60.8075L52.341 137.629C44.7584 137.629 40.5071 137.629 32.9245 137.629C31.8059 137.123 31.8133 136.582 32.0803 135.519C33.7229 132.415 36.701 131.454 47.2758 131.72L46.4317 116.947L45.5875 108.083V102.173C25.1311 89.7786 19.5366 81.0966 28.7035 59.9633Z" fill="#B83D4F"/>
<path d="M47.1017 116.883L46.2605 108.051V102.173V101.794L45.9362 101.598C35.7062 95.3991 29.3686 90.2228 26.6525 84.0733C23.994 78.0544 24.7409 70.9353 29.1398 60.6518L52.5046 61.4575L51.6753 136.956H51.6397H51.5965H51.5534H51.5103H51.4673H51.4244H51.3815H51.3387H51.296H51.2533H51.2108H51.1683H51.1258H51.0834H51.0411H50.9989H50.9567H50.9146H50.8726H50.8306H50.7887H50.7468H50.705H50.6633H50.6217H50.5801H50.5386H50.4971H50.4557H50.4144H50.3731H50.3319H50.2908H50.2497H50.2087H50.1677H50.1268H50.086H50.0452H50.0045H49.9638H49.9232H49.8827H49.8422H49.8018H49.7614H49.7211H49.6809H49.6407H49.6006H49.5605H49.5205H49.4805H49.4406H49.4008H49.361H49.3212H49.2815H49.2419H49.2023H49.1628H49.1233H49.0839H49.0446H49.0053H48.966H48.9268H48.8876H48.8485H48.8095H48.7705H48.7315H48.6926H48.6538H48.615H48.5763H48.5375H48.4989H48.4603H48.4217H48.3832H48.3448H48.3064H48.268H48.2297H48.1914H48.1532H48.115H48.0769H48.0388H48.0007H47.9628H47.9248H47.8869H47.849H47.8112H47.7734H47.7357H47.698H47.6603H47.6227H47.5852H47.5476H47.5102H47.4727H47.4353H47.3979H47.3606H47.3233H47.2861H47.2489H47.2117H47.1746H47.1375H47.1004H47.0634H47.0264H46.9895H46.9526H46.9157H46.8789H46.8421H46.8053H46.7686H46.7319H46.6953H46.6586H46.6221H46.5855H46.549H46.5125H46.476H46.4396H46.4032H46.3669H46.3305H46.2942H46.258H46.2217H46.1855H46.1494H46.1132H46.0771H46.041H46.005H45.9689H45.9329H45.897H45.861H45.8251H45.7892H45.7534H45.7175H45.6817H45.6459H45.6102H45.5744H45.5387H45.503H45.4674H45.4318H45.3961H45.3606H45.325H45.2894H45.2539H45.2184H45.183H45.1475H45.1121H45.0767H45.0413H45.0059H44.9706H44.9352H44.8999H44.8646H44.8294H44.7941H44.7589H44.7237H44.6885H44.6533H44.6181H44.583H44.5479H44.5127H44.4776H44.4426H44.4075H44.3724H44.3374H44.3024H44.2674H44.2324H44.1974H44.1625H44.1275H44.0926H44.0576H44.0227H43.9878H43.9529H43.9181H43.8832H43.8483H43.8135H43.7786H43.7438H43.709H43.6742H43.6394H43.6046H43.5698H43.535H43.5003H43.4655H43.4308H43.396H43.3613H43.3266H43.2918H43.2571H43.2224H43.1877H43.153H43.1183H43.0836H43.0489H43.0142H42.9795H42.9448H42.9101H42.8755H42.8408H42.8061H42.7714H42.7368H42.7021H42.6674H42.6328H42.5981H42.5634H42.5288H42.4941H42.4594H42.4247H42.3901H42.3554H42.3207H42.286H42.2513H42.2166H42.1819H42.1473H42.1125H42.0778H42.0431H42.0084H41.9737H41.939H41.9042H41.8695H41.8348H41.8H41.7652H41.7305H41.6957H41.6609H41.6261H41.5913H41.5565H41.5217H41.4869H41.452H41.4172H41.3823H41.3475H41.3126H41.2777H41.2428H41.2079H41.173H41.138H41.1031H41.0681H41.0331H40.9981H40.9631H40.9281H40.8931H40.858H40.823H40.7879H40.7528H40.7177H40.6825H40.6474H40.6122H40.5771H40.5419H40.5066H40.4714H40.4362H40.4009H40.3656H40.3303H40.295H40.2596H40.2242H40.1889H40.1534H40.118H40.0826H40.0471H40.0116H39.9761H39.9405H39.905H39.8694H39.8338H39.7981H39.7625H39.7268H39.6911H39.6554H39.6196H39.5838H39.548H39.5122H39.4763H39.4404H39.4045H39.3686H39.3326H39.2966H39.2606H39.2245H39.1884H39.1523H39.1162H39.08H39.0438H39.0075H38.9713H38.935H38.8987H38.8623H38.8259H38.7895H38.753H38.7165H38.68H38.6435H38.6069H38.5703H38.5336H38.4969H38.4602H38.4234H38.3866H38.3498H38.3129H38.276H38.2391H38.2021H38.1651H38.128H38.0909H38.0538H38.0166H37.9794H37.9422H37.9049H37.8676H37.8302H37.7928H37.7554H37.7179H37.6804H37.6428H37.6052H37.5675H37.5298H37.4921H37.4543H37.4165H37.3786H37.3407H37.3028H37.2648H37.2267H37.1886H37.1505H37.1123H37.0741H37.0358H36.9975H36.9592H36.9207H36.8823H36.8438H36.8052H36.7666H36.728H36.6893H36.6505H36.6117H36.5729H36.534H36.495H36.456H36.417H36.3779H36.3387H36.2995H36.2603H36.221H36.1816H36.1422H36.1027H36.0632H36.0236H35.984H35.9443H35.9046H35.8648H35.8249H35.785H35.7451H35.705H35.665H35.6248H35.5846H35.5444H35.5041H35.4637H35.4233H35.3828H35.3423H35.3017H35.261H35.2203H35.1796H35.1387H35.0978H35.0569H35.0158H34.9748H34.9336H34.8924H34.8511H34.8098H34.7684H34.727H34.6854H34.6438H34.6022H34.5605H34.5187H34.4769H34.4349H34.393H34.3509H34.3088H34.2666H34.2244H34.1821H34.1397H34.0973H34.0548H34.0122H33.9695H33.9268H33.884H33.8412H33.7982H33.7552H33.7122H33.669H33.6258H33.5825H33.5392H33.4957H33.4522H33.4087H33.365H33.3213H33.2775H33.2336H33.1897H33.1457H33.1016H33.0763C32.6979 136.766 32.6421 136.635 32.6247 136.58C32.5874 136.462 32.5933 136.258 32.7135 135.762C33.081 135.085 33.5082 134.547 34.0723 134.111C34.659 133.657 35.4271 133.288 36.499 133.007C38.6686 132.439 41.97 132.26 47.2589 132.393L47.9895 132.411L47.9478 131.682L47.1036 116.908L47.1029 116.895L47.1017 116.883Z" stroke="#B83D4F" stroke-opacity="0.6" stroke-width="1.34615"/>
</g>
<g filter="url(#filter4_d)">
<path d="M7.92785 59.9633H22.2792C16.4316 80.6443 17.1902 91.3275 40.0074 105.55L40.8517 125.811C20.1585 122.526 10.0348 115.302 0.752276 94.9975C-1.49237 77.4446 1.39822 70.6226 7.92785 59.9633Z" fill="#FFC06E"/>
<path d="M1.70413 75.0527C2.91156 70.032 5.1513 65.8069 8.30527 60.6364H21.3916C18.6354 70.5697 17.4405 78.3451 19.7545 85.3887C22.119 92.5857 28.0933 98.8715 39.3496 105.933L40.1449 125.014C30.2646 123.373 22.9205 120.788 16.9294 116.25C10.7936 111.603 6.011 104.859 1.40698 94.8106C0.304585 86.1334 0.476821 80.156 1.70413 75.0527Z" stroke="#B83D4F" stroke-opacity="0.6" stroke-width="1.34615"/>
</g>
<g filter="url(#filter5_d)">
<path d="M80.1989 10.1553C111.998 7.61048 122.447 12.3359 132.232 35.4816C133.285 62.6124 129.521 80.2425 98.7714 89.0882C100.185 79.5301 99.9589 72.8986 93.495 63.3397C74.7286 42.7589 79.8283 31.003 80.1989 10.1553Z" fill="#FFC06E"/>
<path d="M126.831 68.8301C122.391 77.3274 114.22 83.7611 99.5858 88.1476C100.187 83.7837 100.405 79.952 99.7507 76.1015C99.0434 71.9388 97.3252 67.8023 94.0525 62.9627L94.0252 62.9222L93.9923 62.8862C84.6827 52.6764 81.3422 44.7163 80.3384 36.7633C79.8339 32.7665 79.9166 28.7486 80.1531 24.4028C80.2204 23.1664 80.3002 21.9018 80.3822 20.6043C80.5761 17.5345 80.7816 14.2803 80.8596 10.7783C96.4141 9.56905 106.644 10.1671 114.179 13.7911C121.742 17.4289 126.709 24.1787 131.564 35.6306C132.081 49.1322 131.381 60.1226 126.831 68.8301Z" stroke="#B83D4F" stroke-opacity="0.6" stroke-width="1.34615"/>
</g>
<g filter="url(#filter6_d)">
<path d="M16.04 43.5007C36.2481 33.6163 45.3613 35.2504 54.0289 54.0539C39.4709 57.9782 31.1235 54.8789 16.04 43.5007Z" fill="#194567"/>
<path d="M16.04 43.5007C36.2481 33.6163 45.3613 35.2504 54.0289 54.0539C39.4709 57.9782 31.1235 54.8789 16.04 43.5007Z" stroke="#B83D4F" stroke-opacity="0.6" stroke-width="1.34615"/>
</g>
<g filter="url(#filter7_d)">
<circle cx="32.924" cy="27.0396" r="6.75358" fill="#B83D4F"/>
<circle cx="32.924" cy="27.0396" r="6.0805" stroke="#B83D4F" stroke-opacity="0.6" stroke-width="1.34615"/>
</g>
<g filter="url(#filter8_d)">
<path d="M361.792 129.792C361.792 128.811 361.301 128.32 360.32 128.32H359.584V131.601H360.32C360.853 131.601 361.231 131.419 361.456 131.054C361.68 130.69 361.792 130.269 361.792 129.792ZM366.314 131.307C366.314 132.078 366.167 132.8 365.873 133.473C365.578 134.146 365.178 134.735 364.674 135.24C364.169 135.745 363.58 136.144 362.907 136.439C362.234 136.733 361.512 136.88 360.74 136.88C359.969 136.88 359.24 136.733 358.553 136.439C357.88 136.144 357.291 135.745 356.786 135.24C356.281 134.735 355.882 134.146 355.587 133.473C355.293 132.8 355.145 132.078 355.145 131.307C355.145 130.535 355.293 129.813 355.587 129.14C355.882 128.453 356.281 127.857 356.786 127.352C357.291 126.847 357.88 126.448 358.553 126.153C359.24 125.859 359.969 125.712 360.74 125.712C361.512 125.712 362.234 125.859 362.907 126.153C363.58 126.448 364.169 126.847 364.674 127.352C365.178 127.857 365.578 128.453 365.873 129.14C366.167 129.813 366.314 130.535 366.314 131.307ZM357.985 135.156C358.378 135.436 358.805 135.653 359.268 135.808C359.731 135.962 360.222 136.039 360.74 136.039C361.259 136.039 361.75 135.962 362.213 135.808C362.689 135.653 363.124 135.436 363.517 135.156H361.687C361.463 134.959 361.259 134.721 361.077 134.441C360.923 134.202 360.761 133.908 360.593 133.557C360.425 133.193 360.299 132.779 360.215 132.316H359.584V135.156H357.985ZM357.501 127.899C357.052 128.334 356.695 128.846 356.428 129.435C356.162 130.023 356.029 130.654 356.029 131.328C356.029 132.001 356.162 132.632 356.428 133.221C356.695 133.795 357.052 134.3 357.501 134.735V127.899ZM365.473 131.328C365.473 130.683 365.347 130.073 365.094 129.498C364.856 128.923 364.519 128.418 364.085 127.983C363.65 127.549 363.145 127.212 362.57 126.974C361.995 126.721 361.385 126.595 360.74 126.595C360.208 126.595 359.696 126.679 359.205 126.847C358.714 127.016 358.265 127.261 357.859 127.584H361.224C361.575 127.584 361.911 127.626 362.234 127.71C362.556 127.78 362.844 127.906 363.096 128.088C363.349 128.271 363.545 128.502 363.685 128.782C363.839 129.063 363.916 129.399 363.916 129.792C363.916 130.115 363.846 130.416 363.706 130.697C363.58 130.963 363.405 131.201 363.18 131.412C362.97 131.622 362.725 131.804 362.444 131.959C362.164 132.099 361.869 132.19 361.561 132.232C361.743 132.555 361.939 132.856 362.15 133.136C362.36 133.403 362.57 133.648 362.781 133.873C362.991 134.083 363.187 134.272 363.37 134.441C363.566 134.609 363.734 134.749 363.874 134.861C364.365 134.412 364.751 133.887 365.031 133.284C365.326 132.681 365.473 132.029 365.473 131.328Z" fill="#B83D4F"/>
<path d="M143.282 53.8502C143.332 52.8609 143.307 51.8716 143.208 50.8823C143.158 49.893 143.084 48.9037 142.985 47.9144C142.936 47.6671 142.862 47.2714 142.763 46.7273C142.713 46.1832 142.689 45.8616 142.689 45.7627C142.689 45.7132 142.639 45.6143 142.54 45.4659C142.441 45.2681 142.392 45.1444 142.392 45.0949L142.54 44.9465C142.689 44.7982 142.738 44.724 142.689 44.724V30.4039H142.392C141.798 31.0964 141.106 31.8384 140.314 32.6298C139.523 33.4213 138.583 33.817 137.495 33.817C136.703 33.817 135.937 33.5449 135.195 33.0008C134.502 32.4567 134.156 31.7395 134.156 30.8491V30.7007C134.156 30.6512 134.181 30.577 134.23 30.4781C134.28 30.3792 134.329 30.2803 134.378 30.1813C134.428 30.0329 134.477 29.9093 134.527 29.8103L142.837 22.539V18.4582C142.837 17.9636 143.134 17.5926 143.727 17.3452C144.321 17.0485 144.816 16.9001 145.211 16.9001C145.854 16.9001 146.448 17.0732 146.992 17.4194C147.536 17.7162 148.08 17.8646 148.624 17.8646C149.119 17.8646 149.564 17.7162 149.96 17.4194C150.356 17.1227 150.751 16.8506 151.147 16.6033C153.027 15.4656 154.832 14.6 156.563 14.0064C158.344 13.4128 160.323 13.116 162.499 13.116C163.439 13.116 164.552 13.2149 165.838 13.4128C167.174 13.5612 168.435 13.858 169.622 14.3032C170.859 14.7483 171.897 15.3667 172.738 16.1581C173.579 16.9495 174 17.9636 174 19.2002C174 21.4261 173.554 23.5531 172.664 25.5811C171.774 27.6092 170.537 29.4146 168.954 30.9975C166.877 32.9761 164.923 34.7568 163.093 36.3397C161.312 37.8731 159.309 39.4312 157.083 41.0141C157.033 41.0636 156.984 41.1378 156.934 41.2367C156.885 41.2862 156.835 41.3356 156.786 41.3851L149.589 46.3563C149.342 46.5541 149.218 46.9251 149.218 47.4692C149.218 47.9639 149.218 48.2854 149.218 48.4338C149.218 49.8683 149.292 51.3028 149.44 52.7372C149.638 54.1222 149.836 55.532 150.034 56.9665C150.232 58.4009 150.405 59.8354 150.553 61.2699C150.751 62.7044 150.85 64.1388 150.85 65.5733C150.85 66.3648 150.652 67.082 150.257 67.725C149.91 68.3186 149.267 68.6154 148.327 68.6154C147.635 68.6154 146.893 68.3433 146.102 67.7992C145.36 67.2057 144.939 66.5379 144.84 65.7959L143.282 53.8502ZM149.218 39.5302L162.722 29.2168C163.315 28.7716 163.909 28.2027 164.502 27.5102C165.145 26.7683 165.714 26.0016 166.209 25.2101C166.753 24.3692 167.198 23.5036 167.545 22.6132C167.891 21.7229 168.064 20.882 168.064 20.0905C168.064 19.5959 167.841 19.2249 167.396 18.9776C167 18.6808 166.531 18.4829 165.986 18.384C165.442 18.2356 164.873 18.1614 164.28 18.1614C163.736 18.1614 163.291 18.1614 162.944 18.1614C160.718 18.1614 158.666 18.6808 156.786 19.7195C154.956 20.7088 153.2 21.7723 151.518 22.91C151.419 23.009 151.221 23.1573 150.924 23.3552C150.628 23.5036 150.331 23.7015 150.034 23.9488C149.737 24.1466 149.465 24.3445 149.218 24.5424C149.02 24.7402 148.921 24.9133 148.921 25.0617V39.1592L149.218 39.5302ZM177.042 65.7959C176.547 60.8494 176.127 56.6202 175.78 53.1082C175.434 49.5962 175.137 46.6531 174.89 44.2788C174.643 41.9045 174.42 40.0248 174.222 38.6398C174.074 37.2053 173.95 36.1418 173.851 35.4493C173.752 34.7074 173.678 34.2127 173.629 33.9654C173.579 33.7181 173.554 33.5697 173.554 33.5202V33.2234C173.554 32.6793 173.777 32.2341 174.222 31.8879C174.717 31.4921 175.212 31.2943 175.706 31.2943C176.448 31.2943 177.24 31.4179 178.081 31.6653C178.971 31.9126 179.564 32.432 179.861 33.2234C180.306 35.6472 180.603 38.0957 180.752 40.5689C180.949 43.0422 181.098 45.5154 181.197 47.9886C181.345 50.4124 181.518 52.8609 181.716 55.3341C181.963 57.8074 182.384 60.2559 182.978 62.6796C182.978 62.7786 183.002 62.9764 183.052 63.2732C183.151 63.57 183.225 63.8915 183.274 64.2378C183.373 64.584 183.447 64.9055 183.497 65.2023C183.546 65.4991 183.571 65.697 183.571 65.7959V65.9443C183.571 65.9938 183.596 66.0432 183.645 66.0927C183.645 66.6863 183.373 67.2799 182.829 67.8734C182.285 68.467 181.716 68.7143 181.123 68.6154C180.974 68.5659 180.603 68.4917 180.01 68.3928C179.466 68.2444 179.095 68.1208 178.897 68.0218C178.748 67.9724 178.55 67.8734 178.303 67.725C178.056 67.5272 177.808 67.3293 177.561 67.1315C177.363 66.9336 177.19 66.711 177.042 66.4637C176.893 66.2164 176.893 65.9938 177.042 65.7959ZM172.887 11.7063C172.887 11.36 173.159 11.0632 173.703 10.8159C174.296 10.5191 174.742 10.3707 175.038 10.3707C175.78 10.3707 176.597 10.5933 177.487 11.0385C178.427 11.4342 178.897 12.0525 178.897 12.8934C178.897 13.7343 178.773 14.3032 178.526 14.6C178.328 14.8967 177.808 15.0451 176.968 15.0451C176.077 15.0451 175.162 14.7483 174.222 14.1548C173.332 13.5612 172.887 12.745 172.887 11.7063ZM207.537 66.0927C206.844 65.1034 206.251 63.7431 205.756 62.0119C205.311 60.2311 204.866 58.3762 204.42 56.4471C204.025 54.4685 203.654 52.5641 203.308 50.7339C202.961 48.8543 202.59 47.3703 202.195 46.2821C201.848 45.1444 201.453 44.5014 201.007 44.353C200.562 44.2046 200.043 44.8723 199.449 46.3563L192.994 66.2411C192.747 66.9336 192.45 67.4282 192.104 67.725C191.757 67.9724 191.189 68.096 190.397 68.096C190.002 68.096 189.581 68.0466 189.136 67.9476C188.691 67.7992 188.27 67.6014 187.875 67.3541C187.479 67.1067 187.133 66.8099 186.836 66.4637C186.588 66.1174 186.44 65.7217 186.391 65.2765C186.539 64.683 186.663 63.5947 186.762 62.0119C186.91 60.429 187.009 58.5988 187.058 56.5213C187.108 54.4438 187.133 52.2673 187.133 49.9919C187.182 47.6671 187.182 45.5154 187.133 43.5368C187.133 41.5087 187.108 39.7775 187.058 38.343C187.009 36.8591 186.959 35.8945 186.91 35.4493C186.91 34.9547 186.91 34.46 186.91 33.9654C186.959 33.4213 187.034 32.9266 187.133 32.4814C187.281 32.0363 187.504 31.69 187.8 31.4427C188.147 31.1459 188.666 30.9975 189.358 30.9975C190.298 30.9975 191.164 31.3932 191.955 32.1847C192.796 32.9761 193.217 33.817 193.217 34.7074C193.217 35.9934 193.143 37.2795 192.994 38.5656C192.895 39.8022 192.846 41.0636 192.846 42.3496C192.846 43.1411 192.846 43.8089 192.846 44.353C192.846 44.8971 192.945 45.5649 193.143 46.3563C193.291 45.9606 193.538 45.2681 193.884 44.2788C194.231 43.2895 194.602 42.2507 194.997 41.1625C195.443 40.0743 195.838 39.0602 196.185 38.1204C196.531 37.1311 196.778 36.4386 196.927 36.0429C197.273 35.0536 197.792 34.1138 198.485 33.2234C199.177 32.2836 200.092 31.7642 201.23 31.6653C201.972 31.6158 202.64 31.8137 203.233 32.2588C203.876 32.704 204.42 33.2976 204.866 34.0396C205.311 34.7321 205.682 35.4741 205.979 36.2655C206.275 37.0075 206.498 37.6505 206.646 38.1946L210.653 56.6697L213.769 65.1281C213.819 65.1776 213.843 65.326 213.843 65.5733C213.843 65.7712 213.843 65.9196 213.843 66.0185C213.843 66.6121 213.695 67.2057 213.398 67.7992C213.151 68.3433 212.681 68.6154 211.989 68.6154C211.148 68.6154 210.282 68.3928 209.392 67.9476C208.501 67.453 207.883 66.8347 207.537 66.0927ZM217.331 57.2633L220.076 38.1946C220.175 37.5516 220.447 37.0817 220.892 36.7849C221.387 36.4881 221.931 36.3397 222.525 36.3397C223.613 36.3397 224.478 36.6612 225.121 37.3042C225.764 37.8978 226.309 38.6398 226.754 39.5302H226.828C227.422 39.5302 227.941 39.4312 228.386 39.2334C228.881 38.986 229.474 38.8624 230.167 38.8624C231.75 38.8624 233.085 39.357 234.173 40.3463C235.311 41.3356 236.226 42.5475 236.919 43.982C237.611 45.367 238.106 46.8757 238.403 48.508C238.749 50.1403 238.922 51.5748 238.922 52.8114C238.922 54.2954 238.526 55.9524 237.735 57.7826C236.993 59.6128 235.979 61.3441 234.693 62.9764C233.456 64.6088 232.046 65.969 230.464 67.0573C228.881 68.1455 227.273 68.6896 225.641 68.6896C224.157 68.6896 222.871 68.3433 221.783 67.6508C220.744 66.9583 219.878 66.0927 219.186 65.0539C218.543 63.9657 218.073 62.7538 217.776 61.4183C217.479 60.0827 217.331 58.7719 217.331 57.4858V57.2633ZM223.563 57.7084C223.662 58.2031 223.761 58.7719 223.86 59.415C223.959 60.058 224.107 60.6516 224.305 61.1957C224.503 61.6903 224.775 62.0861 225.121 62.3829C225.517 62.6302 226.061 62.6302 226.754 62.3829C227.397 61.7893 228.089 61.1215 228.831 60.3795C229.573 59.6376 230.266 58.8461 230.909 58.0052C231.601 57.1643 232.17 56.274 232.615 55.3341C233.061 54.3943 233.283 53.405 233.283 52.3662C233.481 50.6844 233.357 49.151 232.912 47.766C232.467 46.3316 231.824 45.3175 230.983 44.724C230.192 44.0809 229.276 44.0067 228.238 44.5014C227.199 44.9465 226.16 46.2079 225.121 48.2854C224.528 49.5715 224.107 51.0802 223.86 52.8114C223.662 54.4932 223.563 56.0514 223.563 57.4858V57.7084ZM249.31 46.9499C248.617 46.9499 247.999 47.123 247.455 47.4692C246.911 47.8155 246.268 47.9886 245.526 47.9886C245.427 47.9886 245.155 47.9886 244.709 47.9886C244.314 47.9392 244.066 47.9144 243.967 47.9144C243.77 47.6671 243.547 47.4692 243.3 47.3208C243.052 47.1725 242.805 47.0241 242.558 46.8757C242.31 46.6778 242.088 46.4552 241.89 46.2079C241.742 45.9606 241.667 45.6143 241.667 45.1691C241.667 44.4272 241.964 43.8336 242.558 43.3884C243.151 42.8938 243.844 42.4733 244.635 42.1271C245.427 41.7808 246.218 41.4593 247.01 41.1625C247.85 40.8657 248.518 40.5195 249.013 40.1237V36.8591C249.013 33.1987 248.84 29.5383 248.494 25.8779C248.147 22.1681 247.974 18.5077 247.974 14.8967C247.974 13.9074 248.221 13.2644 248.716 12.9676C249.211 12.6708 249.879 12.5224 250.719 12.5224C251.709 12.5224 252.426 12.8192 252.871 13.4128C253.366 13.9569 253.712 14.6494 253.91 15.4903C254.108 16.2818 254.207 17.1474 254.207 18.0872C254.207 18.9776 254.231 19.7443 254.281 20.3873C254.281 21.0304 254.33 22.1681 254.429 23.8004C254.528 25.4327 254.627 27.164 254.726 28.9942C254.825 30.8244 254.924 32.5556 255.023 34.188C255.122 35.8203 255.196 36.958 255.245 37.601C255.443 37.5516 255.814 37.4279 256.358 37.2301C256.952 36.9827 257.57 36.7601 258.213 36.5623C258.856 36.315 259.45 36.0924 259.994 35.8945C260.588 35.6966 261.008 35.5483 261.255 35.4493C262.541 34.9052 263.877 34.3116 265.262 33.6686C266.647 32.9761 268.057 32.6298 269.491 32.6298C270.481 32.6298 271.223 32.9761 271.717 33.6686C272.261 34.3116 272.533 35.0783 272.533 35.9687C272.533 36.6117 272.286 37.0817 271.791 37.3784C271.297 37.6752 270.777 37.9473 270.233 38.1946L256.729 43.24C256.581 43.3389 256.433 43.4379 256.284 43.5368C256.136 43.5863 255.987 43.6852 255.839 43.8336V46.2079C255.839 47.9392 255.864 49.7446 255.913 51.6243C256.012 53.4545 256.185 55.2352 256.433 56.9665C256.68 58.4504 256.952 59.9096 257.249 61.3441C257.546 62.7786 257.694 64.2378 257.694 65.7217C257.694 66.1669 257.546 66.7605 257.249 67.5024C256.952 68.2444 256.482 68.6154 255.839 68.6154C254.503 68.6154 253.415 68.2197 252.574 67.4282C251.733 66.6368 251.264 65.5733 251.165 64.2378C250.917 61.6656 250.645 58.8461 250.348 55.7793C250.101 52.7125 249.854 49.7694 249.606 46.9499H249.31ZM274.908 31.1459C274.908 30.7996 274.932 30.1813 274.982 29.291C275.081 28.4006 275.155 27.4608 275.204 26.4715C275.303 25.4822 275.378 24.5424 275.427 23.652C275.477 22.7616 275.501 22.1186 275.501 21.7229C275.847 20.4863 276.639 19.8679 277.876 19.8679C278.964 19.8679 279.73 20.1895 280.176 20.8325C280.621 21.4261 280.843 22.2175 280.843 23.2068C280.843 23.5036 280.819 24.0972 280.769 24.9875C280.769 25.8284 280.72 26.8177 280.621 27.9554C280.522 29.0436 280.398 30.2061 280.25 31.4427C280.151 32.6298 280.003 33.7181 279.805 34.7074C279.607 35.6966 279.359 36.5128 279.063 37.1559C278.766 37.7989 278.444 38.0957 278.098 38.0462C277.406 37.9473 276.862 37.7 276.466 37.3042C276.07 36.8591 275.749 36.3644 275.501 35.8203C275.254 35.2762 275.081 34.7074 274.982 34.1138C274.932 33.4707 274.908 32.8772 274.908 32.333V31.1459ZM295.683 65.7959C295.683 65.5486 295.683 65.326 295.683 65.1281C295.732 64.9303 295.856 64.7324 296.054 64.5346C296.647 63.7926 297.315 63.0259 298.057 62.2345C298.799 61.3936 299.516 60.5774 300.209 59.786C300.901 58.9451 301.544 58.0794 302.138 57.1891C302.732 56.2987 303.226 55.4083 303.622 54.518V54.0728L293.902 56.0761H292.789C292.097 56.0761 291.231 56.0266 290.192 55.9277C289.203 55.8288 288.214 55.6309 287.224 55.3341C286.285 54.9879 285.468 54.518 284.776 53.9244C284.133 53.3308 283.811 52.5394 283.811 51.5501C283.861 50.4124 284.454 49.151 285.592 47.766C286.73 46.381 288.065 45.0207 289.599 43.6852C291.132 42.3496 292.665 41.113 294.199 39.9753C295.782 38.8377 297.043 37.9473 297.983 37.3042C299.022 36.7107 300.258 36.2408 301.693 35.8945C303.127 35.4988 304.438 35.3009 305.625 35.3009C306.615 35.3009 307.48 35.4988 308.222 35.8945C308.964 36.2408 309.335 36.958 309.335 38.0462C309.335 38.4914 309.286 38.9119 309.187 39.3076C309.137 39.7033 308.84 39.9753 308.296 40.1237C306.713 39.9753 305.23 40.099 303.844 40.4947C302.459 40.841 301.149 41.3851 299.912 42.1271C298.675 42.869 297.513 43.7594 296.425 44.7982C295.337 45.7874 294.273 46.8262 293.234 47.9144C292.938 48.2607 292.567 48.7553 292.121 49.3984C291.676 49.9919 291.454 50.3382 291.454 50.4371V50.5113C292.74 50.5113 294.001 50.3877 295.238 50.1403C296.524 49.893 297.785 49.6457 299.022 49.3984C300.308 49.1016 301.569 48.8295 302.806 48.5822C304.092 48.3349 305.403 48.2112 306.738 48.2112C307.233 48.2112 307.777 48.2607 308.371 48.3596C308.964 48.4091 309.508 48.5575 310.003 48.8048C310.547 49.0521 310.967 49.3984 311.264 49.8435C311.61 50.2393 311.784 50.7586 311.784 51.4017C311.784 52.3415 311.536 53.2566 311.042 54.147C310.596 54.9879 309.904 56.0266 308.964 57.2633C308.074 58.4504 306.911 59.9096 305.477 61.6409C304.092 63.3721 302.435 65.5981 300.506 68.3186C300.407 68.467 300.159 68.5659 299.764 68.6154C299.417 68.6649 299.121 68.6896 298.873 68.6896C298.181 68.6896 297.464 68.3928 296.722 67.7992C296.029 67.2057 295.683 66.5379 295.683 65.7959Z" fill="#B83D4F"/>
<path d="M145.28 121.709C145.332 120.669 145.306 119.629 145.202 118.589C145.15 117.549 145.072 116.509 144.968 115.469C144.916 115.209 144.838 114.793 144.734 114.221C144.682 113.649 144.656 113.311 144.656 113.207C144.656 113.155 144.604 113.051 144.5 112.895C144.396 112.687 144.344 112.557 144.344 112.505L144.5 112.349C144.656 112.193 144.708 112.115 144.656 112.115V97.0609H144.344C143.72 97.7889 142.992 98.5689 142.16 99.4009C141.328 100.233 140.34 100.649 139.196 100.649C138.364 100.649 137.558 100.363 136.778 99.7909C136.05 99.2189 135.686 98.4649 135.686 97.5289V97.3729C135.686 97.3209 135.712 97.2429 135.764 97.1389C135.816 97.0349 135.868 96.9309 135.92 96.8269C135.972 96.6709 136.024 96.5409 136.076 96.4369L144.812 88.7929V84.5029C144.812 83.9829 145.124 83.5929 145.748 83.3329C146.372 83.0209 146.892 82.8649 147.308 82.8649C147.984 82.8649 148.608 83.0469 149.18 83.4109C149.752 83.7229 150.324 83.8789 150.896 83.8789C151.416 83.8789 151.884 83.7229 152.3 83.4109C152.716 83.0989 153.132 82.8129 153.548 82.5529C155.524 81.3569 157.422 80.4469 159.242 79.8229C161.114 79.1989 163.194 78.8869 165.482 78.8869C166.47 78.8869 167.64 78.9909 168.992 79.1989C170.396 79.3549 171.722 79.6669 172.97 80.1349C174.27 80.6029 175.362 81.2529 176.246 82.0849C177.13 82.9169 177.572 83.9829 177.572 85.2829C177.572 87.6229 177.104 89.8589 176.168 91.9909C175.232 94.1229 173.932 96.0209 172.268 97.6849C170.084 99.7649 168.03 101.637 166.106 103.301C164.234 104.913 162.128 106.551 159.788 108.215C159.736 108.267 159.684 108.345 159.632 108.449C159.58 108.501 159.528 108.553 159.476 108.605L151.91 113.831C151.65 114.039 151.52 114.429 151.52 115.001C151.52 115.521 151.52 115.859 151.52 116.015C151.52 117.523 151.598 119.031 151.754 120.539C151.962 121.995 152.17 123.477 152.378 124.985C152.586 126.493 152.768 128.001 152.924 129.509C153.132 131.017 153.236 132.525 153.236 134.033C153.236 134.865 153.028 135.619 152.612 136.295C152.248 136.919 151.572 137.231 150.584 137.231C149.856 137.231 149.076 136.945 148.244 136.373C147.464 135.749 147.022 135.047 146.918 134.267L145.28 121.709ZM151.52 106.655L165.716 95.8129C166.34 95.3449 166.964 94.7469 167.588 94.0189C168.264 93.2389 168.862 92.4329 169.382 91.6009C169.954 90.7169 170.422 89.8069 170.786 88.8709C171.15 87.9349 171.332 87.0509 171.332 86.2189C171.332 85.6989 171.098 85.3089 170.63 85.0489C170.214 84.7369 169.72 84.5289 169.148 84.4249C168.576 84.2689 167.978 84.1909 167.354 84.1909C166.782 84.1909 166.314 84.1909 165.95 84.1909C163.61 84.1909 161.452 84.7369 159.476 85.8289C157.552 86.8689 155.706 87.9869 153.938 89.1829C153.834 89.2869 153.626 89.4429 153.314 89.6509C153.002 89.8069 152.69 90.0149 152.378 90.2749C152.066 90.4829 151.78 90.6909 151.52 90.8989C151.312 91.1069 151.208 91.2889 151.208 91.4449V106.265L151.52 106.655ZM195.278 115.469C194.81 116.301 194.264 117.315 193.64 118.511C193.068 119.655 192.444 120.903 191.768 122.255C191.092 123.555 190.338 124.881 189.506 126.233C188.726 127.533 187.894 128.729 187.01 129.821C186.178 130.913 185.294 131.849 184.358 132.629C183.422 133.357 182.46 133.799 181.472 133.955C181.056 133.955 180.588 133.929 180.068 133.877C179.548 133.773 179.028 133.643 178.508 133.487C177.988 133.279 177.546 133.019 177.182 132.707C176.87 132.343 176.714 131.875 176.714 131.303C176.766 125.999 177.156 121.189 177.884 116.873C178.612 112.505 179.756 108.683 181.316 105.407C182.876 102.079 184.878 99.3229 187.322 97.1389C189.766 94.9549 192.73 93.3949 196.214 92.4589C196.318 92.4589 196.5 92.4589 196.76 92.4589C197.072 92.4069 197.28 92.3809 197.384 92.3809C198.944 92.3289 200.062 93.0569 200.738 94.5649C201.466 96.0209 201.986 98.3609 202.298 101.585C202.662 104.757 202.896 108.865 203 113.909C203.156 118.901 203.442 124.907 203.858 131.927C204.014 132.499 204.092 132.993 204.092 133.409C204.144 133.825 204.17 134.319 204.17 134.891C204.17 135.671 203.936 136.269 203.468 136.685C203 137.049 202.402 137.231 201.674 137.231C200.166 137.231 199.1 136.815 198.476 135.983C197.852 135.151 197.436 134.033 197.228 132.629C197.228 132.577 197.176 132.161 197.072 131.381C197.02 130.601 196.916 129.717 196.76 128.729C196.656 127.689 196.552 126.649 196.448 125.609C196.344 124.569 196.266 123.711 196.214 123.035V122.723C196.11 122.203 196.032 121.553 195.98 120.773C195.98 119.993 195.928 119.239 195.824 118.511C195.72 117.627 195.642 116.743 195.59 115.859L195.278 115.469ZM193.562 100.025C192.158 101.065 190.78 102.469 189.428 104.237C188.076 106.005 187.114 107.721 186.542 109.385C186.282 110.165 185.996 111.231 185.684 112.583C185.372 113.935 185.086 115.287 184.826 116.639C184.618 117.939 184.436 119.161 184.28 120.305C184.124 121.397 184.046 122.099 184.046 122.411C184.098 122.411 184.15 122.359 184.202 122.255C184.306 122.151 184.384 122.073 184.436 122.021C187.66 118.901 189.922 115.547 191.222 111.959C192.574 108.319 193.354 104.341 193.562 100.025ZM208.85 131.771C208.85 129.587 208.902 127.455 209.006 125.375C209.11 123.295 209.162 121.163 209.162 118.979C209.006 113.051 208.954 107.253 209.006 101.585C209.058 95.8649 208.798 90.0149 208.226 84.0349C208.226 83.0469 208.46 82.3969 208.928 82.0849C209.396 81.7209 210.098 81.5389 211.034 81.5389C212.23 81.5389 213.244 81.9029 214.076 82.6309C214.96 83.3069 215.428 84.2689 215.48 85.5169C215.376 92.9009 215.454 100.233 215.714 107.513C216.026 114.741 216.182 122.073 216.182 129.509V135.515C215.87 135.931 215.428 136.347 214.856 136.763C214.284 137.179 213.712 137.335 213.14 137.231C211.632 136.971 210.54 136.373 209.864 135.437C209.188 134.449 208.85 133.227 208.85 131.771ZM252.764 115.079C252.66 116.015 252.53 116.743 252.374 117.263C252.27 117.783 252.062 118.251 251.75 118.667C251.438 119.083 250.996 119.525 250.424 119.993C249.852 120.409 249.072 121.033 248.084 121.865C247.096 122.645 245.874 123.685 244.418 124.985C242.962 126.285 241.194 127.975 239.114 130.055C238.282 130.835 237.424 131.641 236.54 132.473C235.656 133.305 234.72 134.059 233.732 134.735C232.796 135.359 231.808 135.879 230.768 136.295C229.728 136.711 228.636 136.919 227.492 136.919C225.256 136.919 223.618 136.165 222.578 134.657C221.538 133.149 221.018 131.407 221.018 129.431C221.018 128.131 221.044 127.039 221.096 126.155C221.2 125.271 221.408 124.127 221.72 122.723C221.148 122.203 220.654 121.761 220.238 121.397C219.822 120.981 219.614 120.435 219.614 119.759C219.614 119.135 219.744 118.719 220.004 118.511C220.316 118.303 220.654 118.173 221.018 118.121C221.434 118.017 221.824 117.913 222.188 117.809C222.552 117.705 222.812 117.497 222.968 117.185C223.072 116.873 223.254 116.301 223.514 115.469C223.826 114.637 224.138 113.779 224.45 112.895C224.762 111.959 225.048 111.101 225.308 110.321C225.62 109.489 225.828 108.917 225.932 108.605C226.296 107.721 226.686 106.837 227.102 105.953C227.57 105.017 228.09 104.185 228.662 103.457C229.286 102.729 229.988 102.131 230.768 101.663C231.6 101.195 232.562 100.961 233.654 100.961C234.278 100.961 235.032 101.247 235.916 101.819C236.852 102.391 237.736 103.093 238.568 103.925C239.4 104.705 240.102 105.537 240.674 106.421C241.246 107.305 241.532 108.059 241.532 108.683C241.532 109.463 241.35 110.191 240.986 110.867C240.622 111.491 240.154 112.089 239.582 112.661C239.062 113.181 238.49 113.675 237.866 114.143C237.242 114.611 236.67 115.053 236.15 115.469C236.098 115.469 235.994 115.521 235.838 115.625C235.682 115.729 235.552 115.807 235.448 115.859C235.396 115.911 235.266 116.041 235.058 116.249C234.902 116.405 234.72 116.587 234.512 116.795C234.304 117.003 234.096 117.211 233.888 117.419C233.732 117.627 233.628 117.757 233.576 117.809C233.42 117.965 233.108 118.225 232.64 118.589C232.224 118.901 231.756 119.265 231.236 119.681C230.716 120.045 230.222 120.409 229.754 120.773C229.338 121.085 229.052 121.293 228.896 121.397L228.584 122.021C228.48 122.229 228.376 122.697 228.272 123.425C228.22 124.101 228.142 124.881 228.038 125.765C227.934 126.649 227.83 127.559 227.726 128.495C227.674 129.379 227.648 130.107 227.648 130.679C227.648 130.731 227.674 130.783 227.726 130.835C227.83 130.939 227.908 130.991 227.96 130.991C228.376 130.991 228.766 130.809 229.13 130.445C229.494 130.081 229.884 129.821 230.3 129.665L242.78 118.121L245.978 113.207C246.238 112.843 246.732 112.453 247.46 112.037C248.24 111.569 249.02 111.335 249.8 111.335C250.58 111.283 251.256 111.517 251.828 112.037C252.452 112.557 252.764 113.571 252.764 115.079ZM235.604 108.995C235.864 108.787 235.968 108.475 235.916 108.059C235.864 107.643 235.708 107.279 235.448 106.967C235.24 106.655 234.954 106.473 234.59 106.421C234.226 106.317 233.888 106.499 233.576 106.967C233.42 107.175 233.134 107.591 232.718 108.215C232.354 108.839 231.964 109.489 231.548 110.165C231.184 110.789 230.872 111.335 230.612 111.803C230.352 112.271 230.3 112.453 230.456 112.349L235.604 108.995ZM262.358 114.455C261.63 114.455 260.98 114.637 260.408 115.001C259.836 115.365 259.16 115.547 258.38 115.547C258.276 115.547 257.99 115.547 257.522 115.547C257.106 115.495 256.846 115.469 256.742 115.469C256.534 115.209 256.3 115.001 256.04 114.845C255.78 114.689 255.52 114.533 255.26 114.377C255 114.169 254.766 113.935 254.558 113.675C254.402 113.415 254.324 113.051 254.324 112.583C254.324 111.803 254.636 111.179 255.26 110.711C255.884 110.191 256.612 109.749 257.444 109.385C258.276 109.021 259.108 108.683 259.94 108.371C260.824 108.059 261.526 107.695 262.046 107.279V103.847C262.046 99.9989 261.864 96.1509 261.5 92.3029C261.136 88.4029 260.954 84.5549 260.954 80.7589C260.954 79.7189 261.214 79.0429 261.734 78.7309C262.254 78.4189 262.956 78.2629 263.84 78.2629C264.88 78.2629 265.634 78.5749 266.102 79.1989C266.622 79.7709 266.986 80.4989 267.194 81.3829C267.402 82.2149 267.506 83.1249 267.506 84.1129C267.506 85.0489 267.532 85.8549 267.584 86.5309C267.584 87.2069 267.636 88.4029 267.74 90.1189C267.844 91.8349 267.948 93.6549 268.052 95.5789C268.156 97.5029 268.26 99.3229 268.364 101.039C268.468 102.755 268.546 103.951 268.598 104.627C268.806 104.575 269.196 104.445 269.768 104.237C270.392 103.977 271.042 103.743 271.718 103.535C272.394 103.275 273.018 103.041 273.59 102.833C274.214 102.625 274.656 102.469 274.916 102.365C276.268 101.793 277.672 101.169 279.128 100.493C280.584 99.7649 282.066 99.4009 283.574 99.4009C284.614 99.4009 285.394 99.7649 285.914 100.493C286.486 101.169 286.772 101.975 286.772 102.911C286.772 103.587 286.512 104.081 285.992 104.393C285.472 104.705 284.926 104.991 284.354 105.251L270.158 110.555C270.002 110.659 269.846 110.763 269.69 110.867C269.534 110.919 269.378 111.023 269.222 111.179V113.675C269.222 115.495 269.248 117.393 269.3 119.369C269.404 121.293 269.586 123.165 269.846 124.985C270.106 126.545 270.392 128.079 270.704 129.587C271.016 131.095 271.172 132.629 271.172 134.189C271.172 134.657 271.016 135.281 270.704 136.061C270.392 136.841 269.898 137.231 269.222 137.231C267.818 137.231 266.674 136.815 265.79 135.983C264.906 135.151 264.412 134.033 264.308 132.629C264.048 129.925 263.762 126.961 263.45 123.737C263.19 120.513 262.93 117.419 262.67 114.455H262.358ZM296.756 114.455C296.028 114.455 295.378 114.637 294.806 115.001C294.234 115.365 293.558 115.547 292.778 115.547C292.674 115.547 292.388 115.547 291.92 115.547C291.504 115.495 291.244 115.469 291.14 115.469C290.932 115.209 290.698 115.001 290.438 114.845C290.178 114.689 289.918 114.533 289.658 114.377C289.398 114.169 289.164 113.935 288.956 113.675C288.8 113.415 288.722 113.051 288.722 112.583C288.722 111.803 289.034 111.179 289.658 110.711C290.282 110.191 291.01 109.749 291.842 109.385C292.674 109.021 293.506 108.683 294.338 108.371C295.222 108.059 295.924 107.695 296.444 107.279V103.847C296.444 99.9989 296.262 96.1509 295.898 92.3029C295.534 88.4029 295.352 84.5549 295.352 80.7589C295.352 79.7189 295.612 79.0429 296.132 78.7309C296.652 78.4189 297.354 78.2629 298.238 78.2629C299.278 78.2629 300.032 78.5749 300.5 79.1989C301.02 79.7709 301.384 80.4989 301.592 81.3829C301.8 82.2149 301.904 83.1249 301.904 84.1129C301.904 85.0489 301.93 85.8549 301.982 86.5309C301.982 87.2069 302.034 88.4029 302.138 90.1189C302.242 91.8349 302.346 93.6549 302.45 95.5789C302.554 97.5029 302.658 99.3229 302.762 101.039C302.866 102.755 302.944 103.951 302.996 104.627C303.204 104.575 303.594 104.445 304.166 104.237C304.79 103.977 305.44 103.743 306.116 103.535C306.792 103.275 307.416 103.041 307.988 102.833C308.612 102.625 309.054 102.469 309.314 102.365C310.666 101.793 312.07 101.169 313.526 100.493C314.982 99.7649 316.464 99.4009 317.972 99.4009C319.012 99.4009 319.792 99.7649 320.312 100.493C320.884 101.169 321.17 101.975 321.17 102.911C321.17 103.587 320.91 104.081 320.39 104.393C319.87 104.705 319.324 104.991 318.752 105.251L304.556 110.555C304.4 110.659 304.244 110.763 304.088 110.867C303.932 110.919 303.776 111.023 303.62 111.179V113.675C303.62 115.495 303.646 117.393 303.698 119.369C303.802 121.293 303.984 123.165 304.244 124.985C304.504 126.545 304.79 128.079 305.102 129.587C305.414 131.095 305.57 132.629 305.57 134.189C305.57 134.657 305.414 135.281 305.102 136.061C304.79 136.841 304.296 137.231 303.62 137.231C302.216 137.231 301.072 136.815 300.188 135.983C299.304 135.151 298.81 134.033 298.706 132.629C298.446 129.925 298.16 126.961 297.848 123.737C297.588 120.513 297.328 117.419 297.068 114.455H296.756ZM356.269 115.079C356.165 116.015 356.035 116.743 355.879 117.263C355.775 117.783 355.567 118.251 355.255 118.667C354.943 119.083 354.501 119.525 353.929 119.993C353.357 120.409 352.577 121.033 351.589 121.865C350.601 122.645 349.379 123.685 347.923 124.985C346.467 126.285 344.7 127.975 342.62 130.055C341.788 130.835 340.93 131.641 340.046 132.473C339.162 133.305 338.226 134.059 337.238 134.735C336.302 135.359 335.314 135.879 334.274 136.295C333.234 136.711 332.142 136.919 330.998 136.919C328.762 136.919 327.124 136.165 326.084 134.657C325.044 133.149 324.524 131.407 324.524 129.431C324.524 128.131 324.55 127.039 324.602 126.155C324.706 125.271 324.914 124.127 325.226 122.723C324.654 122.203 324.16 121.761 323.744 121.397C323.328 120.981 323.12 120.435 323.12 119.759C323.12 119.135 323.25 118.719 323.51 118.511C323.822 118.303 324.16 118.173 324.524 118.121C324.94 118.017 325.33 117.913 325.694 117.809C326.058 117.705 326.318 117.497 326.474 117.185C326.578 116.873 326.76 116.301 327.02 115.469C327.332 114.637 327.644 113.779 327.956 112.895C328.268 111.959 328.554 111.101 328.814 110.321C329.126 109.489 329.334 108.917 329.438 108.605C329.802 107.721 330.192 106.837 330.608 105.953C331.076 105.017 331.596 104.185 332.168 103.457C332.792 102.729 333.494 102.131 334.274 101.663C335.106 101.195 336.068 100.961 337.16 100.961C337.784 100.961 338.538 101.247 339.422 101.819C340.358 102.391 341.242 103.093 342.074 103.925C342.906 104.705 343.608 105.537 344.18 106.421C344.752 107.305 345.038 108.059 345.038 108.683C345.038 109.463 344.856 110.191 344.492 110.867C344.128 111.491 343.66 112.089 343.088 112.661C342.568 113.181 341.996 113.675 341.372 114.143C340.748 114.611 340.176 115.053 339.656 115.469C339.604 115.469 339.5 115.521 339.344 115.625C339.188 115.729 339.058 115.807 338.954 115.859C338.902 115.911 338.772 116.041 338.564 116.249C338.408 116.405 338.226 116.587 338.018 116.795C337.81 117.003 337.602 117.211 337.394 117.419C337.238 117.627 337.134 117.757 337.082 117.809C336.926 117.965 336.614 118.225 336.146 118.589C335.73 118.901 335.262 119.265 334.742 119.681C334.222 120.045 333.728 120.409 333.26 120.773C332.844 121.085 332.558 121.293 332.402 121.397L332.09 122.021C331.986 122.229 331.882 122.697 331.778 123.425C331.726 124.101 331.648 124.881 331.544 125.765C331.44 126.649 331.336 127.559 331.232 128.495C331.18 129.379 331.154 130.107 331.154 130.679C331.154 130.731 331.18 130.783 331.232 130.835C331.336 130.939 331.414 130.991 331.466 130.991C331.882 130.991 332.272 130.809 332.636 130.445C333 130.081 333.39 129.821 333.806 129.665L346.285 118.121L349.483 113.207C349.743 112.843 350.237 112.453 350.965 112.037C351.745 111.569 352.525 111.335 353.305 111.335C354.085 111.283 354.761 111.517 355.333 112.037C355.957 112.557 356.269 113.571 356.269 115.079ZM339.11 108.995C339.37 108.787 339.474 108.475 339.422 108.059C339.37 107.643 339.214 107.279 338.954 106.967C338.746 106.655 338.46 106.473 338.096 106.421C337.732 106.317 337.394 106.499 337.082 106.967C336.926 107.175 336.64 107.591 336.224 108.215C335.86 108.839 335.47 109.489 335.054 110.165C334.69 110.789 334.378 111.335 334.118 111.803C333.858 112.271 333.806 112.453 333.962 112.349L339.11 108.995Z" fill="#B83D4F"/>
</g>
<defs>
<filter id="filter0_d" x="56.9829" y="10.9999" width="39.3573" height="132.33" filterUnits="userSpaceOnUse" color-interpolation-filters="sRGB">
<feFlood flood-opacity="0" result="BackgroundImageFix"/>
<feColorMatrix in="SourceAlpha" type="matrix" values="0 0 0 0 0 0 0 0 0 0 0 0 0 0 0 0 0 0 127 0"/>
<feOffset dx="1.79487" dy="1.79487"/>
<feGaussianBlur stdDeviation="0.897435"/>
<feColorMatrix type="matrix" values="0 0 0 0 0 0 0 0 0 0 0 0 0 0 0 0 0 0 0.4 0"/>
<feBlend mode="normal" in2="BackgroundImageFix" result="effect1_dropShadow"/>
<feBlend mode="normal" in="SourceGraphic" in2="effect1_dropShadow" result="shape"/>
</filter>
<filter id="filter1_d" x="57.4058" y="59.9633" width="19.728" height="43.267" filterUnits="userSpaceOnUse" color-interpolation-filters="sRGB">
<feFlood flood-opacity="0" result="BackgroundImageFix"/>
<feColorMatrix in="SourceAlpha" type="matrix" values="0 0 0 0 0 0 0 0 0 0 0 0 0 0 0 0 0 0 127 0"/>
<feOffset dx="1.79487" dy="1.79487"/>
<feGaussianBlur stdDeviation="0.897435"/>
<feColorMatrix type="matrix" values="0 0 0 0 0 0 0 0 0 0 0 0 0 0 0 0 0 0 0.4 0"/>
<feBlend mode="normal" in2="BackgroundImageFix" result="effect1_dropShadow"/>
<feBlend mode="normal" in="SourceGraphic" in2="effect1_dropShadow" result="shape"/>
</filter>
<filter id="filter2_d" x="42.7114" y="11.8441" width="17.7696" height="32.2925" filterUnits="userSpaceOnUse" color-interpolation-filters="sRGB">
<feFlood flood-opacity="0" result="BackgroundImageFix"/>
<feColorMatrix in="SourceAlpha" type="matrix" values="0 0 0 0 0 0 0 0 0 0 0 0 0 0 0 0 0 0 127 0"/>
<feOffset dx="1.79487" dy="1.79487"/>
<feGaussianBlur stdDeviation="0.897435"/>
<feColorMatrix type="matrix" values="0 0 0 0 0 0 0 0 0 0 0 0 0 0 0 0 0 0 0.4 0"/>
<feBlend mode="normal" in2="BackgroundImageFix" result="effect1_dropShadow"/>
<feBlend mode="normal" in="SourceGraphic" in2="effect1_dropShadow" result="shape"/>
</filter>
<filter id="filter3_d" x="24.437" y="59.9633" width="32.3376" height="81.2559" filterUnits="userSpaceOnUse" color-interpolation-filters="sRGB">
<feFlood flood-opacity="0" result="BackgroundImageFix"/>
<feColorMatrix in="SourceAlpha" type="matrix" values="0 0 0 0 0 0 0 0 0 0 0 0 0 0 0 0 0 0 127 0"/>
<feOffset dx="1.79487" dy="1.79487"/>
<feGaussianBlur stdDeviation="0.897435"/>
<feColorMatrix type="matrix" values="0 0 0 0 0 0 0 0 0 0 0 0 0 0 0 0 0 0 0.4 0"/>
<feBlend mode="normal" in2="BackgroundImageFix" result="effect1_dropShadow"/>
<feBlend mode="normal" in="SourceGraphic" in2="effect1_dropShadow" result="shape"/>
</filter>
<filter id="filter4_d" x="0" y="59.9633" width="44.4415" height="69.4371" filterUnits="userSpaceOnUse" color-interpolation-filters="sRGB">
<feFlood flood-opacity="0" result="BackgroundImageFix"/>
<feColorMatrix in="SourceAlpha" type="matrix" values="0 0 0 0 0 0 0 0 0 0 0 0 0 0 0 0 0 0 127 0"/>
<feOffset dx="1.79487" dy="1.79487"/>
<feGaussianBlur stdDeviation="0.897435"/>
<feColorMatrix type="matrix" values="0 0 0 0 0 0 0 0 0 0 0 0 0 0 0 0 0 0 0.4 0"/>
<feBlend mode="normal" in2="BackgroundImageFix" result="effect1_dropShadow"/>
<feBlend mode="normal" in="SourceGraphic" in2="effect1_dropShadow" result="shape"/>
</filter>
<filter id="filter5_d" x="79.2935" y="9.53741" width="56.6792" height="83.1405" filterUnits="userSpaceOnUse" color-interpolation-filters="sRGB">
<feFlood flood-opacity="0" result="BackgroundImageFix"/>
<feColorMatrix in="SourceAlpha" type="matrix" values="0 0 0 0 0 0 0 0 0 0 0 0 0 0 0 0 0 0 127 0"/>
<feOffset dx="1.79487" dy="1.79487"/>
<feGaussianBlur stdDeviation="0.897435"/>
<feColorMatrix type="matrix" values="0 0 0 0 0 0 0 0 0 0 0 0 0 0 0 0 0 0 0.4 0"/>
<feBlend mode="normal" in2="BackgroundImageFix" result="effect1_dropShadow"/>
<feBlend mode="normal" in="SourceGraphic" in2="effect1_dropShadow" result="shape"/>
</filter>
<filter id="filter6_d" x="14.7593" y="36.8541" width="43.8043" height="23.0807" filterUnits="userSpaceOnUse" color-interpolation-filters="sRGB">
<feFlood flood-opacity="0" result="BackgroundImageFix"/>
<feColorMatrix in="SourceAlpha" type="matrix" values="0 0 0 0 0 0 0 0 0 0 0 0 0 0 0 0 0 0 127 0"/>
<feOffset dx="1.79487" dy="1.79487"/>
<feGaussianBlur stdDeviation="0.897435"/>
<feColorMatrix type="matrix" values="0 0 0 0 0 0 0 0 0 0 0 0 0 0 0 0 0 0 0.4 0"/>
<feBlend mode="normal" in2="BackgroundImageFix" result="effect1_dropShadow"/>
<feBlend mode="normal" in="SourceGraphic" in2="effect1_dropShadow" result="shape"/>
</filter>
<filter id="filter7_d" x="26.1704" y="20.286" width="17.0969" height="17.0969" filterUnits="userSpaceOnUse" color-interpolation-filters="sRGB">
<feFlood flood-opacity="0" result="BackgroundImageFix"/>
<feColorMatrix in="SourceAlpha" type="matrix" values="0 0 0 0 0 0 0 0 0 0 0 0 0 0 0 0 0 0 127 0"/>
<feOffset dx="1.79487" dy="1.79487"/>
<feGaussianBlur stdDeviation="0.897435"/>
<feColorMatrix type="matrix" values="0 0 0 0 0 0 0 0 0 0 0 0 0 0 0 0 0 0 0.4 0"/>
<feBlend mode="normal" in2="BackgroundImageFix" result="effect1_dropShadow"/>
<feBlend mode="normal" in="SourceGraphic" in2="effect1_dropShadow" result="shape"/>
</filter>
<filter id="filter8_d" x="134.156" y="10.3707" width="235.748" height="130.481" filterUnits="userSpaceOnUse" color-interpolation-filters="sRGB">
<feFlood flood-opacity="0" result="BackgroundImageFix"/>
<feColorMatrix in="SourceAlpha" type="matrix" values="0 0 0 0 0 0 0 0 0 0 0 0 0 0 0 0 0 0 127 0"/>
<feOffset dx="1.79487" dy="1.79487"/>
<feGaussianBlur stdDeviation="0.897435"/>
<feColorMatrix type="matrix" values="0 0 0 0 0 0 0 0 0 0 0 0 0 0 0 0 0 0 0.4 0"/>
<feBlend mode="normal" in2="BackgroundImageFix" result="effect1_dropShadow"/>
<feBlend mode="normal" in="SourceGraphic" in2="effect1_dropShadow" result="shape"/>
</filter>
</defs>
</svg>
