<svg width="125" height="144" viewBox="0 0 125 144" fill="none" xmlns="http://www.w3.org/2000/svg">
<g filter="url(#filter0_d)">
<path d="M47.4204 24.2204L48.2896 0.75293H55.2429C54.5483 12.6055 54.2459 19.0949 57.6331 23.5685C62.6141 29.2616 65.4732 32.4463 64.5864 38.7789C63.0301 55.5772 62.1022 66.1962 61.3271 65.9402C61.7008 66.9913 57.1831 66.9833 49.5934 67.0267C47.4977 65.9504 47.2548 64.9464 47.4204 62.8982L46.334 48.7743C56.4476 42.9862 60.1086 38.6458 54.3738 24.2204H47.4204Z" fill="#B83D4F"/>
</g>
<g filter="url(#filter1_d)">
<path d="M46.9863 25.9585H53.2878C56.9813 37.3994 53.9363 41.3088 46.5518 46.3839L46.9863 25.9585Z" fill="#B83D4F"/>
</g>
<g filter="url(#filter2_d)">
<path d="M43.075 1.1875C46.4617 5.78087 47.381 8.78194 44.8134 15.9633H43.5096C37.6086 10.7503 37.5023 7.54568 43.075 1.1875Z" fill="#B83D4F"/>
</g>
<g filter="url(#filter3_d)">
<path d="M31.7764 25.9585L44.3791 26.3931L43.9447 65.9401C40.0413 65.9401 37.8528 65.9401 33.9493 65.9401C33.3735 65.6795 33.3773 65.4006 33.5147 64.8536C34.3604 63.2555 35.8934 62.7611 41.3372 62.898L40.9026 55.2928L40.4681 50.7297V47.6876C29.9374 41.307 27.0574 36.8376 31.7764 25.9585Z" fill="#B83D4F"/>
</g>
<g filter="url(#filter4_d)">
<path d="M21.0812 25.9585H28.469C25.4588 36.6048 25.8493 42.1044 37.5953 49.4259L38.0299 59.8559C27.3773 58.1652 22.1658 54.4462 17.3873 43.9937C16.2317 34.9576 17.7198 31.4458 21.0812 25.9585Z" fill="#B83D4F"/>
</g>
<g filter="url(#filter5_d)">
<path d="M58.2854 0.318058C74.655 -0.991959 80.0341 1.44062 85.0714 13.3558C85.6133 27.3223 83.6761 36.3981 67.8463 40.9517C68.5739 36.0314 68.4576 32.6175 65.1301 27.6967C55.4694 17.102 58.0946 11.0502 58.2854 0.318058Z" fill="#B83D4F"/>
</g>
<g filter="url(#filter6_d)">
<path d="M25.2573 17.4839C35.6602 12.3955 40.3515 13.2367 44.8135 22.9166C37.3192 24.9367 33.0221 23.3412 25.2573 17.4839Z" fill="#B83D4F"/>
</g>
<g filter="url(#filter7_d)">
<circle cx="33.9488" cy="9.00986" r="3.47666" fill="#B83D4F"/>
</g>
<g filter="url(#filter8_d)">
<path d="M120.526 136.509C120.526 136.003 120.273 135.751 119.768 135.751H119.389V137.44H119.768C120.042 137.44 120.237 137.346 120.353 137.158C120.468 136.97 120.526 136.754 120.526 136.509ZM122.854 137.288C122.854 137.685 122.778 138.057 122.627 138.403C122.475 138.75 122.269 139.053 122.009 139.313C121.75 139.573 121.446 139.779 121.1 139.93C120.753 140.082 120.382 140.157 119.985 140.157C119.588 140.157 119.212 140.082 118.859 139.93C118.512 139.779 118.209 139.573 117.949 139.313C117.689 139.053 117.483 138.75 117.332 138.403C117.18 138.057 117.104 137.685 117.104 137.288C117.104 136.891 117.18 136.519 117.332 136.173C117.483 135.819 117.689 135.512 117.949 135.252C118.209 134.993 118.512 134.787 118.859 134.635C119.212 134.484 119.588 134.408 119.985 134.408C120.382 134.408 120.753 134.484 121.1 134.635C121.446 134.787 121.75 134.993 122.009 135.252C122.269 135.512 122.475 135.819 122.627 136.173C122.778 136.519 122.854 136.891 122.854 137.288ZM118.566 139.27C118.768 139.414 118.988 139.526 119.227 139.605C119.465 139.685 119.718 139.724 119.985 139.724C120.252 139.724 120.504 139.685 120.743 139.605C120.988 139.526 121.212 139.414 121.414 139.27H120.472C120.356 139.169 120.252 139.046 120.158 138.901C120.078 138.779 119.995 138.627 119.909 138.447C119.822 138.259 119.757 138.046 119.714 137.808H119.389V139.27H118.566ZM118.317 135.534C118.086 135.758 117.902 136.021 117.765 136.324C117.628 136.628 117.559 136.952 117.559 137.299C117.559 137.645 117.628 137.97 117.765 138.273C117.902 138.569 118.086 138.829 118.317 139.053V135.534ZM122.421 137.299C122.421 136.967 122.356 136.653 122.226 136.357C122.103 136.061 121.93 135.801 121.706 135.577C121.483 135.354 121.223 135.18 120.927 135.058C120.631 134.928 120.317 134.863 119.985 134.863C119.71 134.863 119.447 134.906 119.194 134.993C118.942 135.079 118.711 135.206 118.501 135.372H120.234C120.414 135.372 120.587 135.393 120.753 135.437C120.919 135.473 121.067 135.538 121.197 135.631C121.327 135.725 121.428 135.844 121.501 135.989C121.58 136.133 121.62 136.306 121.62 136.509C121.62 136.675 121.584 136.83 121.511 136.974C121.446 137.111 121.356 137.234 121.241 137.342C121.132 137.451 121.006 137.544 120.862 137.624C120.717 137.696 120.566 137.743 120.407 137.765C120.501 137.931 120.602 138.086 120.71 138.23C120.818 138.367 120.927 138.494 121.035 138.609C121.143 138.717 121.244 138.815 121.338 138.901C121.439 138.988 121.526 139.06 121.598 139.118C121.851 138.887 122.049 138.616 122.194 138.306C122.345 137.996 122.421 137.66 122.421 137.299Z" fill="#B83D4F"/>
<path d="M5.38559 99.3991C5.41106 98.8898 5.39832 98.3805 5.3474 97.8712C5.32193 97.362 5.28374 96.8527 5.23281 96.3434C5.20735 96.2161 5.16915 96.0124 5.11822 95.7323C5.09276 95.4522 5.08003 95.2867 5.08003 95.2357C5.08003 95.2103 5.05456 95.1593 5.00364 95.0829C4.95271 94.9811 4.92724 94.9174 4.92724 94.892L5.00364 94.8156C5.08003 94.7392 5.10549 94.701 5.08003 94.701V87.3292H4.92724C4.62168 87.6857 4.26519 88.0677 3.85777 88.4751C3.45034 88.8825 2.96653 89.0862 2.40633 89.0862C1.99891 89.0862 1.60422 88.9462 1.22226 88.6661C0.865769 88.386 0.687523 88.0167 0.687523 87.5584V87.482C0.687523 87.4565 0.700254 87.4183 0.725718 87.3674C0.751182 87.3165 0.776646 87.2656 0.80211 87.2146C0.827573 87.1382 0.853037 87.0746 0.878501 87.0237L5.15642 83.2805V81.1797C5.15642 80.9251 5.3092 80.7341 5.61477 80.6068C5.92033 80.454 6.17497 80.3776 6.37868 80.3776C6.70971 80.3776 7.01528 80.4667 7.29538 80.645C7.57548 80.7978 7.85558 80.8741 8.13568 80.8741C8.39032 80.8741 8.6195 80.7978 8.82321 80.645C9.02692 80.4922 9.23063 80.3521 9.43434 80.2248C10.402 79.6391 11.3314 79.1935 12.2226 78.888C13.1393 78.5824 14.1579 78.4296 15.2783 78.4296C15.7621 78.4296 16.335 78.4805 16.9971 78.5824C17.6846 78.6588 18.3339 78.8116 18.9451 79.0408C19.5817 79.2699 20.1164 79.5882 20.5493 79.9956C20.9822 80.4031 21.1986 80.9251 21.1986 81.5617C21.1986 82.7075 20.9694 83.8025 20.5111 84.8465C20.0527 85.8905 19.4161 86.8199 18.6013 87.6348C17.5318 88.6533 16.526 89.57 15.5838 90.3849C14.6671 91.1743 13.6359 91.9764 12.49 92.7912C12.4645 92.8167 12.4391 92.8549 12.4136 92.9058C12.3881 92.9313 12.3627 92.9567 12.3372 92.9822L8.63223 95.5413C8.50491 95.6431 8.44125 95.8341 8.44125 96.1142C8.44125 96.3689 8.44125 96.5344 8.44125 96.6108C8.44125 97.3492 8.47944 98.0877 8.55584 98.8261C8.65769 99.5391 8.75955 100.265 8.8614 101.003C8.96326 101.742 9.05238 102.48 9.12877 103.219C9.23063 103.957 9.28155 104.696 9.28155 105.434C9.28155 105.841 9.1797 106.211 8.97599 106.542C8.79774 106.847 8.46671 107 7.9829 107C7.62641 107 7.24445 106.86 6.83703 106.58C6.45507 106.274 6.23863 105.931 6.1877 105.549L5.38559 99.3991ZM8.44125 92.0273L15.3929 86.7181C15.6984 86.4889 16.004 86.1961 16.3096 85.8396C16.6406 85.4576 16.9334 85.0629 17.1881 84.6555C17.4682 84.2226 17.6973 83.777 17.8756 83.3187C18.0538 82.8603 18.143 82.4274 18.143 82.02C18.143 81.7654 18.0284 81.5744 17.7992 81.4471C17.5955 81.2943 17.3536 81.1924 17.0735 81.1415C16.7934 81.0651 16.5005 81.0269 16.195 81.0269C15.9149 81.0269 15.6857 81.0269 15.5075 81.0269C14.3616 81.0269 13.3048 81.2943 12.3372 81.829C11.395 82.3383 10.4911 82.8858 9.62532 83.4715C9.57439 83.5224 9.47253 83.5988 9.31975 83.7006C9.16697 83.777 9.01418 83.8789 8.8614 84.0062C8.70862 84.108 8.56857 84.2099 8.44125 84.3118C8.33939 84.4136 8.28847 84.5027 8.28847 84.5791V91.8363L8.44125 92.0273ZM22.7646 105.549C22.51 103.002 22.2936 100.825 22.1153 99.0171C21.9371 97.2092 21.7843 95.6941 21.657 94.4718C21.5296 93.2495 21.4151 92.2819 21.3132 91.5689C21.2368 90.8305 21.1731 90.283 21.1222 89.9265C21.0713 89.5446 21.0331 89.2899 21.0076 89.1626C20.9822 89.0353 20.9694 88.9589 20.9694 88.9334V88.7807C20.9694 88.5006 21.084 88.2714 21.3132 88.0931C21.5678 87.8894 21.8225 87.7876 22.0771 87.7876C22.4591 87.7876 22.8665 87.8512 23.2994 87.9785C23.7577 88.1059 24.0633 88.3732 24.2161 88.7807C24.4452 90.0284 24.598 91.2888 24.6744 92.562C24.7763 93.8352 24.8527 95.1084 24.9036 96.3816C24.98 97.6293 25.0691 98.8898 25.171 100.163C25.2983 101.436 25.5147 102.697 25.8203 103.944C25.8203 103.995 25.833 104.097 25.8585 104.25C25.9094 104.403 25.9476 104.568 25.9731 104.746C26.024 104.925 26.0622 105.09 26.0877 105.243C26.1131 105.396 26.1259 105.498 26.1259 105.549V105.625C26.1259 105.65 26.1386 105.676 26.1641 105.701C26.1641 106.007 26.024 106.312 25.7439 106.618C25.4638 106.924 25.171 107.051 24.8654 107C24.789 106.975 24.598 106.936 24.2925 106.885C24.0124 106.809 23.8214 106.745 23.7195 106.694C23.6431 106.669 23.5413 106.618 23.414 106.542C23.2866 106.44 23.1593 106.338 23.032 106.236C22.9302 106.134 22.841 106.02 22.7646 105.892C22.6882 105.765 22.6882 105.65 22.7646 105.549ZM20.6257 77.7039C20.6257 77.5257 20.7657 77.3729 21.0458 77.2456C21.3514 77.0928 21.5806 77.0164 21.7334 77.0164C22.1153 77.0164 22.5355 77.131 22.9938 77.3601C23.4776 77.5639 23.7195 77.8821 23.7195 78.315C23.7195 78.7479 23.6559 79.0408 23.5285 79.1935C23.4267 79.3463 23.1593 79.4227 22.7264 79.4227C22.2681 79.4227 21.797 79.2699 21.3132 78.9644C20.8549 78.6588 20.6257 78.2386 20.6257 77.7039ZM38.4631 105.701C38.1066 105.192 37.801 104.492 37.5464 103.601C37.3172 102.684 37.088 101.729 36.8588 100.736C36.6551 99.7174 36.4642 98.737 36.2859 97.7948C36.1077 96.8272 35.9167 96.0633 35.713 95.5031C35.5347 94.9174 35.331 94.5864 35.1018 94.51C34.8727 94.4336 34.6053 94.7774 34.2997 95.5413L30.9767 105.778C30.8494 106.134 30.6966 106.389 30.5184 106.542C30.3401 106.669 30.0473 106.733 29.6399 106.733C29.4361 106.733 29.2197 106.707 28.9905 106.656C28.7614 106.58 28.5449 106.478 28.3412 106.351C28.1375 106.223 27.9592 106.071 27.8065 105.892C27.6791 105.714 27.6028 105.51 27.5773 105.281C27.6537 104.976 27.7173 104.415 27.7683 103.601C27.8447 102.786 27.8956 101.844 27.9211 100.774C27.9465 99.7046 27.9592 98.5842 27.9592 97.4129C27.9847 96.2161 27.9847 95.1084 27.9592 94.0899C27.9592 93.0458 27.9465 92.1546 27.9211 91.4162C27.8956 90.6522 27.8701 90.1557 27.8447 89.9265C27.8447 89.6719 27.8447 89.4172 27.8447 89.1626C27.8701 88.8825 27.9083 88.6279 27.9592 88.3987C28.0356 88.1695 28.1502 87.9913 28.303 87.864C28.4813 87.7112 28.7486 87.6348 29.1051 87.6348C29.5889 87.6348 30.0345 87.8385 30.442 88.2459C30.8749 88.6533 31.0913 89.0862 31.0913 89.5446C31.0913 90.2066 31.0531 90.8687 30.9767 91.5307C30.9258 92.1673 30.9003 92.8167 30.9003 93.4787C30.9003 93.8861 30.9003 94.2299 30.9003 94.51C30.9003 94.7901 30.9512 95.1339 31.0531 95.5413C31.1295 95.3376 31.2568 94.9811 31.4351 94.4718C31.6133 93.9625 31.8043 93.4278 32.008 92.8676C32.2372 92.3074 32.4409 91.7854 32.6191 91.3016C32.7974 90.7923 32.9247 90.4358 33.0011 90.2321C33.1793 89.7228 33.4467 89.239 33.8032 88.7807C34.1597 88.2968 34.6308 88.0295 35.2164 87.9785C35.5984 87.9531 35.9421 88.0549 36.2477 88.2841C36.5787 88.5133 36.8588 88.8188 37.088 89.2008C37.3172 89.5573 37.5082 89.9393 37.661 90.3467C37.8137 90.7286 37.9283 91.0597 38.0047 91.3398L40.0673 100.85L41.6715 105.205C41.697 105.23 41.7097 105.307 41.7097 105.434C41.7097 105.536 41.7097 105.612 41.7097 105.663C41.7097 105.969 41.6333 106.274 41.4805 106.58C41.3532 106.86 41.1113 107 40.7548 107C40.3219 107 39.8763 106.885 39.418 106.656C38.9596 106.402 38.6413 106.083 38.4631 105.701ZM43.5049 101.156L44.9181 91.3398C44.9691 91.0087 45.1091 90.7668 45.3383 90.614C45.5929 90.4613 45.873 90.3849 46.1786 90.3849C46.7388 90.3849 47.1844 90.5504 47.5154 90.8814C47.8465 91.187 48.1266 91.5689 48.3558 92.0273H48.3939C48.6995 92.0273 48.9669 91.9764 49.1961 91.8745C49.4507 91.7472 49.7563 91.6835 50.1128 91.6835C50.9276 91.6835 51.6151 91.9382 52.1753 92.4474C52.761 92.9567 53.2321 93.5806 53.5886 94.319C53.9451 95.032 54.1997 95.8087 54.3525 96.649C54.5307 97.4893 54.6198 98.2277 54.6198 98.8643C54.6198 99.6282 54.4161 100.481 54.0087 101.423C53.6268 102.366 53.1047 103.257 52.4427 104.097C51.8061 104.937 51.0804 105.638 50.2655 106.198C49.4507 106.758 48.6231 107.038 47.7828 107.038C47.0189 107.038 46.3568 106.86 45.7966 106.503C45.2619 106.147 44.8163 105.701 44.4598 105.167C44.1288 104.606 43.8869 103.983 43.7341 103.295C43.5813 102.607 43.5049 101.933 43.5049 101.271V101.156ZM46.7133 101.385C46.7643 101.64 46.8152 101.933 46.8661 102.264C46.917 102.595 46.9934 102.9 47.0953 103.18C47.1971 103.435 47.3372 103.639 47.5154 103.792C47.7192 103.919 47.9993 103.919 48.3558 103.792C48.6868 103.486 49.0433 103.142 49.4252 102.76C49.8072 102.378 50.1637 101.971 50.4947 101.538C50.8512 101.105 51.144 100.647 51.3732 100.163C51.6024 99.6792 51.717 99.1699 51.717 98.6351C51.8188 97.7694 51.7552 96.98 51.526 96.267C51.2968 95.5286 50.9658 95.0066 50.5329 94.701C50.1255 94.37 49.6544 94.3318 49.1197 94.5864C48.5849 94.8156 48.0502 95.4649 47.5154 96.5344C47.2099 97.1964 46.9934 97.9731 46.8661 98.8643C46.7643 99.7301 46.7133 100.532 46.7133 101.271V101.385ZM59.9672 95.8469C59.6107 95.8469 59.2925 95.936 59.0124 96.1142C58.7322 96.2925 58.4012 96.3816 58.0193 96.3816C57.9683 96.3816 57.8283 96.3816 57.5991 96.3816C57.3954 96.3561 57.2681 96.3434 57.2172 96.3434C57.1153 96.2161 57.0007 96.1142 56.8734 96.0378C56.7461 95.9614 56.6188 95.8851 56.4914 95.8087C56.3641 95.7068 56.2495 95.5922 56.1477 95.4649C56.0713 95.3376 56.0331 95.1593 56.0331 94.9302C56.0331 94.5482 56.1859 94.2426 56.4914 94.0135C56.797 93.7588 57.1535 93.5424 57.5609 93.3641C57.9683 93.1859 58.3758 93.0204 58.7832 92.8676C59.2161 92.7148 59.5598 92.5366 59.8145 92.3329V90.6522C59.8145 88.7679 59.7253 86.8836 59.5471 84.9993C59.3688 83.0895 59.2797 81.2052 59.2797 79.3463C59.2797 78.837 59.407 78.506 59.6617 78.3532C59.9163 78.2004 60.2601 78.1241 60.693 78.1241C61.2022 78.1241 61.5715 78.2768 61.8006 78.5824C62.0553 78.8625 62.2335 79.219 62.3354 79.6519C62.4372 80.0593 62.4882 80.5049 62.4882 80.9887C62.4882 81.4471 62.5009 81.8418 62.5264 82.1728C62.5264 82.5038 62.5518 83.0895 62.6027 83.9298C62.6537 84.7701 62.7046 85.6613 62.7555 86.6035C62.8065 87.5457 62.8574 88.4369 62.9083 89.2772C62.9592 90.1175 62.9974 90.7032 63.0229 91.0342C63.1248 91.0087 63.3157 90.9451 63.5958 90.8432C63.9014 90.7159 64.2197 90.6013 64.5507 90.4995C64.8818 90.3721 65.1873 90.2576 65.4674 90.1557C65.773 90.0538 65.9894 89.9775 66.1167 89.9265C66.7788 89.6464 67.4663 89.3409 68.1793 89.0098C68.8923 88.6533 69.618 88.4751 70.3565 88.4751C70.8657 88.4751 71.2477 88.6533 71.5023 89.0098C71.7824 89.3409 71.9225 89.7355 71.9225 90.1939C71.9225 90.5249 71.7952 90.7668 71.5405 90.9196C71.2859 91.0724 71.0185 91.2124 70.7384 91.3398L63.7868 93.9371C63.7104 93.988 63.634 94.0389 63.5576 94.0899C63.4812 94.1153 63.4049 94.1662 63.3285 94.2426V95.4649C63.3285 96.3561 63.3412 97.2856 63.3667 98.2532C63.4176 99.1953 63.5067 100.112 63.634 101.003C63.7613 101.767 63.9014 102.518 64.0542 103.257C64.207 103.995 64.2834 104.746 64.2834 105.51C64.2834 105.74 64.207 106.045 64.0542 106.427C63.9014 106.809 63.6595 107 63.3285 107C62.6409 107 62.0807 106.796 61.6479 106.389C61.215 105.981 60.9731 105.434 60.9221 104.746C60.7948 103.422 60.6548 101.971 60.502 100.392C60.3747 98.8134 60.2473 97.2983 60.12 95.8469H59.9672ZM73.1448 87.7112C73.1448 87.5329 73.1575 87.2146 73.183 86.7563C73.2339 86.2979 73.2721 85.8141 73.2975 85.3048C73.3485 84.7956 73.3867 84.3118 73.4121 83.8534C73.4376 83.3951 73.4503 83.064 73.4503 82.8603C73.6286 82.2237 74.036 81.9054 74.6726 81.9054C75.2328 81.9054 75.6275 82.0709 75.8567 82.402C76.0858 82.7075 76.2004 83.115 76.2004 83.6242C76.2004 83.777 76.1877 84.0826 76.1622 84.5409C76.1622 84.9738 76.1368 85.4831 76.0858 86.0688C76.0349 86.629 75.9712 87.2274 75.8948 87.864C75.8439 88.4751 75.7675 89.0353 75.6657 89.5446C75.5638 90.0538 75.4365 90.474 75.2837 90.805C75.1309 91.1361 74.9654 91.2888 74.7872 91.2634C74.4307 91.2124 74.1506 91.0851 73.9469 90.8814C73.7432 90.6522 73.5776 90.3976 73.4503 90.1175C73.323 89.8374 73.2339 89.5446 73.183 89.239C73.1575 88.908 73.1448 88.6024 73.1448 88.3223V87.7112ZM83.8395 105.549C83.8395 105.421 83.8395 105.307 83.8395 105.205C83.865 105.103 83.9287 105.001 84.0305 104.899C84.3361 104.517 84.6799 104.123 85.0618 103.715C85.4438 103.282 85.813 102.862 86.1695 102.455C86.526 102.022 86.857 101.576 87.1626 101.118C87.4681 100.66 87.7228 100.201 87.9265 99.7428V99.5136L82.9229 100.545H82.3499C81.9934 100.545 81.5478 100.519 81.0131 100.469C80.5038 100.418 79.9945 100.316 79.4852 100.163C79.0014 99.9847 78.5813 99.7428 78.2248 99.4373C77.8938 99.1317 77.7282 98.7243 77.7282 98.215C77.7537 97.6293 78.0593 96.98 78.6449 96.267C79.2306 95.554 79.9181 94.8538 80.7075 94.1662C81.4969 93.4787 82.2863 92.8421 83.0756 92.2565C83.8905 91.6708 84.5398 91.2124 85.0236 90.8814C85.5584 90.5759 86.1949 90.3339 86.9334 90.1557C87.6718 89.952 88.3466 89.8501 88.9578 89.8501C89.467 89.8501 89.9127 89.952 90.2946 90.1557C90.6766 90.3339 90.8676 90.7032 90.8676 91.2634C90.8676 91.4925 90.8421 91.709 90.7912 91.9127C90.7657 92.1164 90.6129 92.2565 90.3328 92.3329C89.518 92.2565 88.7541 92.3201 88.0411 92.5238C87.3281 92.7021 86.6533 92.9822 86.0167 93.3641C85.3801 93.7461 84.7817 94.2044 84.2215 94.7392C83.6613 95.2485 83.1138 95.7832 82.5791 96.3434C82.4263 96.5216 82.2353 96.7763 82.0062 97.1073C81.777 97.4129 81.6624 97.5911 81.6624 97.6421V97.6803C82.3245 97.6803 82.9738 97.6166 83.6104 97.4893C84.2724 97.362 84.9218 97.2346 85.5584 97.1073C86.2204 96.9545 86.8697 96.8145 87.5063 96.6872C88.1684 96.5598 88.8432 96.4962 89.5307 96.4962C89.7853 96.4962 90.0654 96.5216 90.371 96.5726C90.6766 96.598 90.9567 96.6744 91.2113 96.8017C91.4914 96.9291 91.7079 97.1073 91.8606 97.3365C92.0389 97.5402 92.128 97.8076 92.128 98.1386C92.128 98.6224 92.0007 99.0935 91.7461 99.5518C91.5169 99.9847 91.1604 100.519 90.6766 101.156C90.2182 101.767 89.6198 102.518 88.8814 103.41C88.1684 104.301 87.3154 105.447 86.3223 106.847C86.2713 106.924 86.144 106.975 85.9403 107C85.7621 107.025 85.6093 107.038 85.482 107.038C85.1255 107.038 84.7562 106.885 84.3743 106.58C84.0178 106.274 83.8395 105.931 83.8395 105.549Z" fill="#B83D4F"/>
<path d="M5.66161 133.009C5.68838 132.474 5.675 131.939 5.62146 131.403C5.59469 130.868 5.55454 130.333 5.501 129.797C5.47423 129.663 5.43408 129.449 5.38054 129.155C5.35377 128.86 5.34039 128.686 5.34039 128.633C5.34039 128.606 5.31362 128.552 5.26008 128.472C5.20654 128.365 5.17977 128.298 5.17977 128.271L5.26008 128.191C5.34039 128.111 5.36715 128.071 5.34039 128.071V120.321H5.17977C4.85855 120.696 4.48378 121.097 4.05548 121.526C3.62718 121.954 3.11857 122.168 2.52966 122.168C2.10135 122.168 1.68644 122.021 1.2849 121.726C0.910141 121.432 0.722759 121.044 0.722759 120.562V120.482C0.722759 120.455 0.736143 120.415 0.762912 120.361C0.789681 120.308 0.81645 120.254 0.843219 120.201C0.869988 120.12 0.896756 120.053 0.923525 120L5.42069 116.065V113.856C5.42069 113.589 5.5813 113.388 5.90253 113.254C6.22376 113.093 6.49145 113.013 6.7056 113.013C7.05359 113.013 7.37482 113.107 7.66928 113.294C7.96373 113.455 8.25819 113.535 8.55265 113.535C8.82034 113.535 9.06126 113.455 9.27541 113.294C9.48956 113.134 9.70371 112.986 9.91786 112.853C10.9351 112.237 11.9121 111.768 12.849 111.447C13.8127 111.126 14.8835 110.965 16.0613 110.965C16.5699 110.965 17.1722 111.019 17.8682 111.126C18.591 111.206 19.2736 111.367 19.916 111.608C20.5852 111.849 21.1474 112.183 21.6025 112.612C22.0575 113.04 22.2851 113.589 22.2851 114.258C22.2851 115.463 22.0441 116.614 21.5623 117.711C21.0805 118.809 20.4112 119.786 19.5546 120.642C18.4304 121.713 17.373 122.677 16.3825 123.533C15.4189 124.363 14.3347 125.206 13.1301 126.063C13.1034 126.09 13.0766 126.13 13.0498 126.183C13.023 126.21 12.9963 126.237 12.9695 126.264L9.07464 128.954C8.9408 129.061 8.87387 129.262 8.87387 129.556C8.87387 129.824 8.87387 129.998 8.87387 130.078C8.87387 130.855 8.91403 131.631 8.99433 132.407C9.10141 133.157 9.20848 133.92 9.31556 134.696C9.42263 135.472 9.51633 136.249 9.59663 137.025C9.70371 137.801 9.75725 138.577 9.75725 139.354C9.75725 139.782 9.65017 140.17 9.43602 140.518C9.24864 140.839 8.90064 141 8.39203 141C8.01727 141 7.61574 140.853 7.18744 140.558C6.7859 140.237 6.55837 139.876 6.50483 139.474L5.66161 133.009ZM8.87387 125.26L16.1818 119.679C16.503 119.438 16.8242 119.13 17.1454 118.755C17.4934 118.354 17.8013 117.939 18.069 117.51C18.3634 117.055 18.6043 116.587 18.7917 116.105C18.9791 115.623 19.0728 115.168 19.0728 114.74C19.0728 114.472 18.9523 114.271 18.7114 114.137C18.4973 113.977 18.243 113.87 17.9485 113.816C17.6541 113.736 17.3462 113.696 17.025 113.696C16.7305 113.696 16.4896 113.696 16.3022 113.696C15.0976 113.696 13.9867 113.977 12.9695 114.539C11.9791 115.074 11.0288 115.65 10.1186 116.266C10.0651 116.319 9.95801 116.399 9.7974 116.507C9.63679 116.587 9.47617 116.694 9.31556 116.828C9.15495 116.935 9.00772 117.042 8.87387 117.149C8.7668 117.256 8.71326 117.35 8.71326 117.43V125.059L8.87387 125.26ZM31.3999 129.797C31.1589 130.226 30.8779 130.748 30.5566 131.363C30.2622 131.952 29.941 132.595 29.593 133.291C29.245 133.96 28.8568 134.642 28.4285 135.338C28.027 136.008 27.5987 136.623 27.1436 137.185C26.7153 137.748 26.2602 138.229 25.7784 138.631C25.2966 139.006 24.8013 139.233 24.2927 139.314C24.0786 139.314 23.8377 139.3 23.57 139.273C23.3023 139.22 23.0346 139.153 22.7669 139.073C22.4992 138.966 22.2717 138.832 22.0843 138.671C21.9237 138.484 21.8434 138.243 21.8434 137.948C21.8701 135.218 22.0709 132.742 22.4457 130.52C22.8204 128.271 23.4094 126.304 24.2124 124.617C25.0155 122.904 26.0461 121.486 27.3042 120.361C28.5624 119.237 30.0882 118.434 31.8817 117.952C31.9352 117.952 32.0289 117.952 32.1628 117.952C32.3234 117.925 32.4305 117.912 32.484 117.912C33.2871 117.885 33.8626 118.26 34.2106 119.036C34.5854 119.786 34.853 120.99 35.0137 122.65C35.201 124.283 35.3215 126.398 35.375 128.994C35.4553 131.564 35.6026 134.656 35.8167 138.27C35.897 138.564 35.9372 138.818 35.9372 139.032C35.9639 139.247 35.9773 139.501 35.9773 139.795C35.9773 140.197 35.8569 140.505 35.616 140.719C35.375 140.906 35.0672 141 34.6924 141C33.9161 141 33.3674 140.786 33.0461 140.358C32.7249 139.929 32.5108 139.354 32.4037 138.631C32.4037 138.604 32.3769 138.39 32.3234 137.989C32.2966 137.587 32.2431 137.132 32.1628 136.623C32.1092 136.088 32.0557 135.553 32.0022 135.017C31.9486 134.482 31.9085 134.04 31.8817 133.692V133.531C31.8282 133.264 31.788 132.929 31.7612 132.528C31.7612 132.126 31.7345 131.738 31.6809 131.363C31.6274 130.908 31.5872 130.453 31.5605 129.998L31.3999 129.797ZM30.5165 121.847C29.7937 122.382 29.0844 123.105 28.3884 124.015C27.6924 124.925 27.1971 125.809 26.9027 126.665C26.7688 127.067 26.6216 127.616 26.461 128.312C26.3004 129.008 26.1532 129.704 26.0193 130.4C25.9122 131.069 25.8186 131.698 25.7382 132.287C25.6579 132.849 25.6178 133.21 25.6178 133.371C25.6446 133.371 25.6713 133.344 25.6981 133.291C25.7516 133.237 25.7918 133.197 25.8186 133.17C27.4782 131.564 28.6427 129.837 29.3119 127.99C30.0079 126.117 30.4094 124.069 30.5165 121.847ZM38.3865 138.189C38.3865 137.065 38.4133 135.967 38.4668 134.897C38.5204 133.826 38.5471 132.728 38.5471 131.604C38.4668 128.552 38.4401 125.568 38.4668 122.65C38.4936 119.705 38.3598 116.694 38.0653 113.615C38.0653 113.107 38.1858 112.772 38.4267 112.612C38.6676 112.424 39.029 112.331 39.5108 112.331C40.1265 112.331 40.6485 112.518 41.0768 112.893C41.5319 113.241 41.7728 113.736 41.7996 114.378C41.746 118.18 41.7862 121.954 41.92 125.702C42.0806 129.422 42.1609 133.197 42.1609 137.025V140.117C42.0003 140.331 41.7728 140.545 41.4783 140.759C41.1839 140.973 40.8894 141.054 40.595 141C39.8187 140.866 39.2565 140.558 38.9085 140.076C38.5605 139.568 38.3865 138.939 38.3865 138.189ZM60.9928 129.596C60.9393 130.078 60.8724 130.453 60.7921 130.721C60.7385 130.988 60.6314 131.229 60.4708 131.444C60.3102 131.658 60.0827 131.885 59.7882 132.126C59.4938 132.34 59.0922 132.662 58.5836 133.09C58.075 133.491 57.4459 134.027 56.6964 134.696C55.9469 135.365 55.0368 136.235 53.966 137.306C53.5377 137.707 53.096 138.122 52.6409 138.551C52.1859 138.979 51.704 139.367 51.1954 139.715C50.7136 140.036 50.205 140.304 49.6696 140.518C49.1342 140.732 48.5721 140.839 47.9832 140.839C46.8321 140.839 45.9889 140.451 45.4535 139.675C44.9181 138.899 44.6504 138.002 44.6504 136.985C44.6504 136.315 44.6638 135.753 44.6906 135.298C44.7441 134.843 44.8512 134.254 45.0118 133.531C44.7174 133.264 44.4631 133.036 44.2489 132.849C44.0348 132.635 43.9277 132.354 43.9277 132.006C43.9277 131.684 43.9946 131.47 44.1284 131.363C44.2891 131.256 44.4631 131.189 44.6504 131.162C44.8646 131.109 45.0654 131.055 45.2527 131.002C45.4401 130.948 45.574 130.841 45.6543 130.681C45.7078 130.52 45.8015 130.226 45.9353 129.797C46.096 129.369 46.2566 128.927 46.4172 128.472C46.5778 127.99 46.725 127.549 46.8589 127.147C47.0195 126.719 47.1266 126.424 47.1801 126.264C47.3675 125.809 47.5682 125.354 47.7824 124.899C48.0233 124.417 48.291 123.988 48.5855 123.614C48.9067 123.239 49.2681 122.931 49.6696 122.69C50.0979 122.449 50.5931 122.329 51.1553 122.329C51.4765 122.329 51.8646 122.476 52.3197 122.77C52.8016 123.065 53.2566 123.426 53.6849 123.855C54.1132 124.256 54.4746 124.684 54.7691 125.139C55.0635 125.595 55.2108 125.983 55.2108 126.304C55.2108 126.705 55.1171 127.08 54.9297 127.428C54.7423 127.749 54.5014 128.057 54.2069 128.352C53.9392 128.619 53.6448 128.874 53.3235 129.115C53.0023 129.356 52.7079 129.583 52.4402 129.797C52.4134 129.797 52.3599 129.824 52.2796 129.878C52.1993 129.931 52.1323 129.971 52.0788 129.998C52.052 130.025 51.9851 130.092 51.878 130.199C51.7977 130.279 51.704 130.373 51.597 130.48C51.4899 130.587 51.3828 130.694 51.2757 130.801C51.1954 130.908 51.1419 130.975 51.1151 131.002C51.0348 131.082 50.8742 131.216 50.6333 131.403C50.4191 131.564 50.1782 131.751 49.9105 131.966C49.6428 132.153 49.3885 132.34 49.1476 132.528C48.9335 132.688 48.7862 132.795 48.7059 132.849L48.5453 133.17C48.4918 133.277 48.4382 133.518 48.3847 133.893C48.3579 134.241 48.3178 134.642 48.2642 135.097C48.2107 135.553 48.1572 136.021 48.1036 136.503C48.0769 136.958 48.0635 137.333 48.0635 137.627C48.0635 137.654 48.0769 137.681 48.1036 137.707C48.1572 137.761 48.1973 137.788 48.2241 137.788C48.4382 137.788 48.639 137.694 48.8264 137.507C49.0138 137.319 49.2145 137.185 49.4287 137.105L55.8532 131.162L57.4995 128.633C57.6333 128.445 57.8876 128.245 58.2624 128.03C58.6639 127.79 59.0655 127.669 59.467 127.669C59.8685 127.642 60.2165 127.763 60.511 128.03C60.8322 128.298 60.9928 128.82 60.9928 129.596ZM52.1591 126.465C52.2929 126.357 52.3465 126.197 52.3197 125.983C52.2929 125.769 52.2126 125.581 52.0788 125.421C51.9717 125.26 51.8245 125.166 51.6371 125.139C51.4497 125.086 51.2757 125.18 51.1151 125.421C51.0348 125.528 50.8876 125.742 50.6734 126.063C50.486 126.384 50.2853 126.719 50.0711 127.067C49.8837 127.388 49.7231 127.669 49.5893 127.91C49.4554 128.151 49.4287 128.245 49.509 128.191L52.1591 126.465ZM65.9317 129.275C65.5569 129.275 65.2223 129.369 64.9278 129.556C64.6334 129.744 64.2854 129.837 63.8839 129.837C63.8303 129.837 63.6831 129.837 63.4422 129.837C63.228 129.811 63.0942 129.797 63.0406 129.797C62.9336 129.663 62.8131 129.556 62.6793 129.476C62.5454 129.396 62.4116 129.315 62.2777 129.235C62.1439 129.128 62.0234 129.008 61.9163 128.874C61.836 128.74 61.7959 128.552 61.7959 128.312C61.7959 127.91 61.9565 127.589 62.2777 127.348C62.599 127.08 62.9737 126.853 63.402 126.665C63.8303 126.478 64.2586 126.304 64.6869 126.143C65.142 125.983 65.5034 125.795 65.7711 125.581V123.814C65.7711 121.834 65.6774 119.853 65.49 117.872C65.3026 115.864 65.2089 113.883 65.2089 111.929C65.2089 111.394 65.3428 111.046 65.6104 110.885C65.8781 110.724 66.2395 110.644 66.6946 110.644C67.23 110.644 67.6181 110.805 67.859 111.126C68.1267 111.42 68.3141 111.795 68.4212 112.25C68.5283 112.679 68.5818 113.147 68.5818 113.656C68.5818 114.137 68.5952 114.552 68.6219 114.9C68.6219 115.248 68.6487 115.864 68.7022 116.747C68.7558 117.631 68.8093 118.568 68.8629 119.558C68.9164 120.549 68.9699 121.486 69.0235 122.369C69.077 123.252 69.1172 123.868 69.1439 124.216C69.251 124.189 69.4518 124.122 69.7462 124.015C70.0675 123.881 70.4021 123.761 70.7501 123.654C71.0981 123.52 71.4193 123.399 71.7137 123.292C72.035 123.185 72.2625 123.105 72.3964 123.051C73.0923 122.757 73.8151 122.436 74.5646 122.088C75.3142 121.713 76.0771 121.526 76.8534 121.526C77.3887 121.526 77.7903 121.713 78.058 122.088C78.3524 122.436 78.4996 122.851 78.4996 123.333C78.4996 123.681 78.3658 123.935 78.0981 124.095C77.8304 124.256 77.5494 124.403 77.2549 124.537L69.947 127.268C69.8667 127.321 69.7864 127.375 69.7061 127.428C69.6258 127.455 69.5455 127.509 69.4652 127.589V128.874C69.4652 129.811 69.4785 130.788 69.5053 131.805C69.5589 132.795 69.6525 133.759 69.7864 134.696C69.9202 135.499 70.0675 136.289 70.2281 137.065C70.3887 137.841 70.469 138.631 70.469 139.434C70.469 139.675 70.3887 139.996 70.2281 140.398C70.0675 140.799 69.8132 141 69.4652 141C68.7424 141 68.1535 140.786 67.6984 140.358C67.2433 139.929 66.989 139.354 66.9355 138.631C66.8017 137.239 66.6544 135.713 66.4938 134.053C66.36 132.394 66.2261 130.801 66.0923 129.275H65.9317ZM83.6393 129.275C83.2645 129.275 82.9299 129.369 82.6354 129.556C82.341 129.744 81.993 129.837 81.5915 129.837C81.5379 129.837 81.3907 129.837 81.1498 129.837C80.9356 129.811 80.8018 129.797 80.7482 129.797C80.6412 129.663 80.5207 129.556 80.3869 129.476C80.253 129.396 80.1192 129.315 79.9853 129.235C79.8515 129.128 79.731 129.008 79.6239 128.874C79.5436 128.74 79.5035 128.552 79.5035 128.312C79.5035 127.91 79.6641 127.589 79.9853 127.348C80.3065 127.08 80.6813 126.853 81.1096 126.665C81.5379 126.478 81.9662 126.304 82.3945 126.143C82.8496 125.983 83.211 125.795 83.4787 125.581V123.814C83.4787 121.834 83.385 119.853 83.1976 117.872C83.0102 115.864 82.9165 113.883 82.9165 111.929C82.9165 111.394 83.0504 111.046 83.318 110.885C83.5857 110.724 83.9471 110.644 84.4022 110.644C84.9376 110.644 85.3257 110.805 85.5666 111.126C85.8343 111.42 86.0217 111.795 86.1288 112.25C86.2358 112.679 86.2894 113.147 86.2894 113.656C86.2894 114.137 86.3028 114.552 86.3295 114.9C86.3295 115.248 86.3563 115.864 86.4098 116.747C86.4634 117.631 86.5169 118.568 86.5705 119.558C86.624 120.549 86.6775 121.486 86.7311 122.369C86.7846 123.252 86.8248 123.868 86.8515 124.216C86.9586 124.189 87.1594 124.122 87.4538 124.015C87.7751 123.881 88.1097 123.761 88.4577 123.654C88.8057 123.52 89.1269 123.399 89.4213 123.292C89.7426 123.185 89.9701 123.105 90.1039 123.051C90.7999 122.757 91.5227 122.436 92.2722 122.088C93.0218 121.713 93.7847 121.526 94.561 121.526C95.0963 121.526 95.4979 121.713 95.7656 122.088C96.06 122.436 96.2072 122.851 96.2072 123.333C96.2072 123.681 96.0734 123.935 95.8057 124.095C95.538 124.256 95.257 124.403 94.9625 124.537L87.6546 127.268C87.5743 127.321 87.494 127.375 87.4137 127.428C87.3334 127.455 87.2531 127.509 87.1728 127.589V128.874C87.1728 129.811 87.1861 130.788 87.2129 131.805C87.2664 132.795 87.3601 133.759 87.494 134.696C87.6278 135.499 87.7751 136.289 87.9357 137.065C88.0963 137.841 88.1766 138.631 88.1766 139.434C88.1766 139.675 88.0963 139.996 87.9357 140.398C87.7751 140.799 87.5208 141 87.1728 141C86.45 141 85.8611 140.786 85.406 140.358C84.9509 139.929 84.6966 139.354 84.6431 138.631C84.5093 137.239 84.362 135.713 84.2014 134.053C84.0676 132.394 83.9337 130.801 83.7999 129.275H83.6393ZM114.276 129.596C114.223 130.078 114.156 130.453 114.075 130.721C114.022 130.988 113.915 131.229 113.754 131.444C113.594 131.658 113.366 131.885 113.072 132.126C112.777 132.34 112.376 132.662 111.867 133.09C111.358 133.491 110.729 134.027 109.98 134.696C109.23 135.365 108.32 136.235 107.249 137.306C106.821 137.707 106.379 138.122 105.924 138.551C105.469 138.979 104.987 139.367 104.479 139.715C103.997 140.036 103.488 140.304 102.953 140.518C102.418 140.732 101.855 140.839 101.267 140.839C100.115 140.839 99.2723 140.451 98.7369 139.675C98.2015 138.899 97.9338 138.002 97.9338 136.985C97.9338 136.315 97.9472 135.753 97.974 135.298C98.0275 134.843 98.1346 134.254 98.2952 133.531C98.0008 133.264 97.7464 133.036 97.5323 132.849C97.3181 132.635 97.2111 132.354 97.2111 132.006C97.2111 131.684 97.278 131.47 97.4118 131.363C97.5725 131.256 97.7464 131.189 97.9338 131.162C98.148 131.109 98.3487 131.055 98.5361 131.002C98.7235 130.948 98.8574 130.841 98.9377 130.681C98.9912 130.52 99.0849 130.226 99.2187 129.797C99.3793 129.369 99.54 128.927 99.7006 128.472C99.8612 127.99 100.008 127.549 100.142 127.147C100.303 126.719 100.41 126.424 100.463 126.264C100.651 125.809 100.852 125.354 101.066 124.899C101.307 124.417 101.574 123.988 101.869 123.614C102.19 123.239 102.551 122.931 102.953 122.69C103.381 122.449 103.877 122.329 104.439 122.329C104.76 122.329 105.148 122.476 105.603 122.77C106.085 123.065 106.54 123.426 106.968 123.855C107.397 124.256 107.758 124.684 108.052 125.139C108.347 125.595 108.494 125.983 108.494 126.304C108.494 126.705 108.4 127.08 108.213 127.428C108.026 127.749 107.785 128.057 107.49 128.352C107.223 128.619 106.928 128.874 106.607 129.115C106.286 129.356 105.991 129.583 105.724 129.797C105.697 129.797 105.643 129.824 105.563 129.878C105.483 129.931 105.416 129.971 105.362 129.998C105.335 130.025 105.268 130.092 105.161 130.199C105.081 130.279 104.987 130.373 104.88 130.48C104.773 130.587 104.666 130.694 104.559 130.801C104.479 130.908 104.425 130.975 104.399 131.002C104.318 131.082 104.158 131.216 103.917 131.403C103.703 131.564 103.462 131.751 103.194 131.966C102.926 132.153 102.672 132.34 102.431 132.528C102.217 132.688 102.07 132.795 101.989 132.849L101.829 133.17C101.775 133.277 101.722 133.518 101.668 133.893C101.641 134.241 101.601 134.642 101.548 135.097C101.494 135.553 101.441 136.021 101.387 136.503C101.36 136.958 101.347 137.333 101.347 137.627C101.347 137.654 101.36 137.681 101.387 137.707C101.441 137.761 101.481 137.788 101.507 137.788C101.722 137.788 101.922 137.694 102.11 137.507C102.297 137.319 102.498 137.185 102.712 137.105L109.137 131.162L110.783 128.633C110.917 128.445 111.171 128.245 111.546 128.03C111.947 127.79 112.349 127.669 112.75 127.669C113.152 127.642 113.5 127.763 113.794 128.03C114.116 128.298 114.276 128.82 114.276 129.596ZM105.442 126.465C105.576 126.357 105.63 126.197 105.603 125.983C105.576 125.769 105.496 125.581 105.362 125.421C105.255 125.26 105.108 125.166 104.92 125.139C104.733 125.086 104.559 125.18 104.399 125.421C104.318 125.528 104.171 125.742 103.957 126.063C103.769 126.384 103.569 126.719 103.355 127.067C103.167 127.388 103.007 127.669 102.873 127.91C102.739 128.151 102.712 128.245 102.792 128.191L105.442 126.465Z" fill="#B83D4F"/>
</g>
<defs>
<filter id="filter0_d" x="46.334" y="0.75293" width="20.2607" height="68.1217" filterUnits="userSpaceOnUse" color-interpolation-filters="sRGB">
<feFlood flood-opacity="0" result="BackgroundImageFix"/>
<feColorMatrix in="SourceAlpha" type="matrix" values="0 0 0 0 0 0 0 0 0 0 0 0 0 0 0 0 0 0 127 0"/>
<feOffset dx="0.923976" dy="0.923976"/>
<feGaussianBlur stdDeviation="0.461988"/>
<feColorMatrix type="matrix" values="0 0 0 0 0 0 0 0 0 0 0 0 0 0 0 0 0 0 0.4 0"/>
<feBlend mode="normal" in2="BackgroundImageFix" result="effect1_dropShadow"/>
<feBlend mode="normal" in="SourceGraphic" in2="effect1_dropShadow" result="shape"/>
</filter>
<filter id="filter1_d" x="46.5518" y="25.9585" width="10.1557" height="22.2733" filterUnits="userSpaceOnUse" color-interpolation-filters="sRGB">
<feFlood flood-opacity="0" result="BackgroundImageFix"/>
<feColorMatrix in="SourceAlpha" type="matrix" values="0 0 0 0 0 0 0 0 0 0 0 0 0 0 0 0 0 0 127 0"/>
<feOffset dx="0.923976" dy="0.923976"/>
<feGaussianBlur stdDeviation="0.461988"/>
<feColorMatrix type="matrix" values="0 0 0 0 0 0 0 0 0 0 0 0 0 0 0 0 0 0 0.4 0"/>
<feBlend mode="normal" in2="BackgroundImageFix" result="effect1_dropShadow"/>
<feBlend mode="normal" in="SourceGraphic" in2="effect1_dropShadow" result="shape"/>
</filter>
<filter id="filter2_d" x="38.9873" y="1.1875" width="9.14756" height="16.6237" filterUnits="userSpaceOnUse" color-interpolation-filters="sRGB">
<feFlood flood-opacity="0" result="BackgroundImageFix"/>
<feColorMatrix in="SourceAlpha" type="matrix" values="0 0 0 0 0 0 0 0 0 0 0 0 0 0 0 0 0 0 127 0"/>
<feOffset dx="0.923976" dy="0.923976"/>
<feGaussianBlur stdDeviation="0.461988"/>
<feColorMatrix type="matrix" values="0 0 0 0 0 0 0 0 0 0 0 0 0 0 0 0 0 0 0.4 0"/>
<feBlend mode="normal" in2="BackgroundImageFix" result="effect1_dropShadow"/>
<feBlend mode="normal" in="SourceGraphic" in2="effect1_dropShadow" result="shape"/>
</filter>
<filter id="filter3_d" x="29.5801" y="25.9585" width="16.647" height="41.8295" filterUnits="userSpaceOnUse" color-interpolation-filters="sRGB">
<feFlood flood-opacity="0" result="BackgroundImageFix"/>
<feColorMatrix in="SourceAlpha" type="matrix" values="0 0 0 0 0 0 0 0 0 0 0 0 0 0 0 0 0 0 127 0"/>
<feOffset dx="0.923976" dy="0.923976"/>
<feGaussianBlur stdDeviation="0.461988"/>
<feColorMatrix type="matrix" values="0 0 0 0 0 0 0 0 0 0 0 0 0 0 0 0 0 0 0.4 0"/>
<feBlend mode="normal" in2="BackgroundImageFix" result="effect1_dropShadow"/>
<feBlend mode="normal" in="SourceGraphic" in2="effect1_dropShadow" result="shape"/>
</filter>
<filter id="filter4_d" x="17" y="25.9585" width="22.8779" height="35.7454" filterUnits="userSpaceOnUse" color-interpolation-filters="sRGB">
<feFlood flood-opacity="0" result="BackgroundImageFix"/>
<feColorMatrix in="SourceAlpha" type="matrix" values="0 0 0 0 0 0 0 0 0 0 0 0 0 0 0 0 0 0 127 0"/>
<feOffset dx="0.923976" dy="0.923976"/>
<feGaussianBlur stdDeviation="0.461988"/>
<feColorMatrix type="matrix" values="0 0 0 0 0 0 0 0 0 0 0 0 0 0 0 0 0 0 0.4 0"/>
<feBlend mode="normal" in2="BackgroundImageFix" result="effect1_dropShadow"/>
<feBlend mode="normal" in="SourceGraphic" in2="effect1_dropShadow" result="shape"/>
</filter>
<filter id="filter5_d" x="57.8193" y="0" width="29.1777" height="42.7997" filterUnits="userSpaceOnUse" color-interpolation-filters="sRGB">
<feFlood flood-opacity="0" result="BackgroundImageFix"/>
<feColorMatrix in="SourceAlpha" type="matrix" values="0 0 0 0 0 0 0 0 0 0 0 0 0 0 0 0 0 0 127 0"/>
<feOffset dx="0.923976" dy="0.923976"/>
<feGaussianBlur stdDeviation="0.461988"/>
<feColorMatrix type="matrix" values="0 0 0 0 0 0 0 0 0 0 0 0 0 0 0 0 0 0 0.4 0"/>
<feBlend mode="normal" in2="BackgroundImageFix" result="effect1_dropShadow"/>
<feBlend mode="normal" in="SourceGraphic" in2="effect1_dropShadow" result="shape"/>
</filter>
<filter id="filter6_d" x="25.2573" y="14.4087" width="21.4041" height="11.1888" filterUnits="userSpaceOnUse" color-interpolation-filters="sRGB">
<feFlood flood-opacity="0" result="BackgroundImageFix"/>
<feColorMatrix in="SourceAlpha" type="matrix" values="0 0 0 0 0 0 0 0 0 0 0 0 0 0 0 0 0 0 127 0"/>
<feOffset dx="0.923976" dy="0.923976"/>
<feGaussianBlur stdDeviation="0.461988"/>
<feColorMatrix type="matrix" values="0 0 0 0 0 0 0 0 0 0 0 0 0 0 0 0 0 0 0.4 0"/>
<feBlend mode="normal" in2="BackgroundImageFix" result="effect1_dropShadow"/>
<feBlend mode="normal" in="SourceGraphic" in2="effect1_dropShadow" result="shape"/>
</filter>
<filter id="filter7_d" x="30.4722" y="5.5332" width="8.80127" height="8.80127" filterUnits="userSpaceOnUse" color-interpolation-filters="sRGB">
<feFlood flood-opacity="0" result="BackgroundImageFix"/>
<feColorMatrix in="SourceAlpha" type="matrix" values="0 0 0 0 0 0 0 0 0 0 0 0 0 0 0 0 0 0 127 0"/>
<feOffset dx="0.923976" dy="0.923976"/>
<feGaussianBlur stdDeviation="0.461988"/>
<feColorMatrix type="matrix" values="0 0 0 0 0 0 0 0 0 0 0 0 0 0 0 0 0 0 0.4 0"/>
<feBlend mode="normal" in2="BackgroundImageFix" result="effect1_dropShadow"/>
<feBlend mode="normal" in="SourceGraphic" in2="effect1_dropShadow" result="shape"/>
</filter>
<filter id="filter8_d" x="0.6875" y="77.0164" width="124.015" height="65.8477" filterUnits="userSpaceOnUse" color-interpolation-filters="sRGB">
<feFlood flood-opacity="0" result="BackgroundImageFix"/>
<feColorMatrix in="SourceAlpha" type="matrix" values="0 0 0 0 0 0 0 0 0 0 0 0 0 0 0 0 0 0 127 0"/>
<feOffset dx="0.923976" dy="0.923976"/>
<feGaussianBlur stdDeviation="0.461988"/>
<feColorMatrix type="matrix" values="0 0 0 0 0 0 0 0 0 0 0 0 0 0 0 0 0 0 0.4 0"/>
<feBlend mode="normal" in2="BackgroundImageFix" result="effect1_dropShadow"/>
<feBlend mode="normal" in="SourceGraphic" in2="effect1_dropShadow" result="shape"/>
</filter>
</defs>
</svg>
